<?xml version="1.0" encoding="utf-8" ?>
<!DOCTYPE svg PUBLIC "-//W3C//DTD SVG 1.1//EN" "http://www.w3.org/Graphics/SVG/1.1/DTD/svg11.dtd">
<svg height="1365" version="1.1" width="2049" xmlns="http://www.w3.org/2000/svg">
<rect fill="#ffffff" height="416" stroke="#ffffff" stroke-width="1" width="416" x="576" y="613"/>
<rect fill="none" height="416" stroke="#000000" stroke-width="1" width="416" x="576" y="613"/>
<text font-family="Dialog" font-size="12" x="673" y="627">
+ PluginGame5GenerateSituationDialog</text>
<rect fill="#000000" height="1" stroke="#000000" stroke-width="1" width="416" x="576" y="637"/>
<rect fill="#000000" height="1" stroke="#000000" stroke-width="1" width="416" x="576" y="669"/>
<text font-family="Dialog" font-size="12" x="580" y="684">
+PluginGame5GenerateSituationDialog(parent : QWidget*)</text>
<text font-family="Dialog" font-size="12" x="580" y="701">
+~PluginGame5GenerateSituationDialog()</text>
<text font-family="Dialog" font-size="12" x="580" y="718">
+getBoardState() : std::vector&lt;int&gt;</text>
<text font-family="Dialog" font-size="12" x="580" y="735">
+buttonRandomClicked(solvabilityCheck : bool)</text>
<text font-family="Dialog" font-size="12" x="580" y="752">
+onPluginAction()</text>
<text font-family="Dialog" font-size="12" x="580" y="769">
-evaluateBy() : std::string</text>
<text font-family="Dialog" font-size="12" x="580" y="786">
-activityValue(direction : int) : std::string</text>
<text font-family="Dialog" font-size="12" x="580" y="803">
-modelRTP() : QString</text>
<text font-family="Dialog" font-size="12" x="580" y="820">
-modelRSS() : QString</text>
<text font-family="Dialog" font-size="12" x="580" y="837">
-modelPAT() : QString</text>
<text font-family="Dialog" font-size="12" x="580" y="854">
-modelDPT() : QString</text>
<text font-family="Dialog" font-size="12" x="580" y="871">
-modelFUN() : QString</text>
<text font-family="Dialog" font-size="12" x="580" y="888">
-clearAllTabs()</text>
<text font-family="Dialog" font-size="12" x="580" y="905">
-getCurrentModel() : rdo::gui::model::Model</text>
<text font-family="Dialog" font-size="12" x="580" y="922">
-updateTabs()</text>
<text font-family="Dialog" font-size="12" x="580" y="939">
-parseFunTab() : QStringList</text>
<text font-family="Dialog" font-size="12" x="580" y="956">
-callTilesOrderDialog()</text>
<text font-family="Dialog" font-size="12" x="580" y="973">
-onClickOk()</text>
<text font-family="Dialog" font-size="12" x="580" y="990">
-onClickHide(state : bool)</text>
<text font-family="Dialog" font-size="12" x="580" y="1007">
-emitSolvabilityCheck()</text>
<rect fill="#ffffff" height="67" stroke="#ffffff" stroke-width="1" width="96" x="896" y="517"/>
<rect fill="none" height="67" stroke="#000000" stroke-width="1" width="96" x="896" y="517"/>
<text font-family="Dialog" font-size="12" x="916" y="531">
+ QDialog</text>
<rect fill="#000000" height="1" stroke="#000000" stroke-width="1" width="96" x="896" y="541"/>
<rect fill="#000000" height="1" stroke="#000000" stroke-width="1" width="96" x="896" y="562"/>
<rect fill="#ffffff" height="67" stroke="#ffffff" stroke-width="1" width="112" x="736" y="173"/>
<rect fill="none" height="67" stroke="#000000" stroke-width="1" width="112" x="736" y="173"/>
<text font-family="Dialog" font-size="12" x="765" y="187">
+ QObject</text>
<rect fill="#000000" height="1" stroke="#000000" stroke-width="1" width="112" x="736" y="197"/>
<rect fill="#000000" height="1" stroke="#000000" stroke-width="1" width="112" x="736" y="218"/>
<line fill="#000000" stroke="#000000" stroke-width="1" x1="576" x2="571" y1="973" y2="973"/>
<line fill="#000000" stroke="#000000" stroke-width="1" x1="566" x2="561" y1="973" y2="973"/>
<line fill="#000000" stroke="#000000" stroke-width="1" x1="556" x2="551" y1="973" y2="973"/>
<line fill="#000000" stroke="#000000" stroke-width="1" x1="546" x2="544" y1="973" y2="973"/>
<line fill="#000000" stroke="#000000" stroke-width="1" x1="544" x2="544" y1="973" y2="968"/>
<line fill="#000000" stroke="#000000" stroke-width="1" x1="544" x2="544" y1="963" y2="958"/>
<line fill="#000000" stroke="#000000" stroke-width="1" x1="544" x2="544" y1="953" y2="948"/>
<line fill="#000000" stroke="#000000" stroke-width="1" x1="544" x2="544" y1="943" y2="938"/>
<line fill="#000000" stroke="#000000" stroke-width="1" x1="544" x2="544" y1="933" y2="928"/>
<line fill="#000000" stroke="#000000" stroke-width="1" x1="544" x2="544" y1="923" y2="918"/>
<line fill="#000000" stroke="#000000" stroke-width="1" x1="544" x2="544" y1="913" y2="908"/>
<line fill="#000000" stroke="#000000" stroke-width="1" x1="544" x2="544" y1="903" y2="898"/>
<line fill="#000000" stroke="#000000" stroke-width="1" x1="544" x2="544" y1="893" y2="888"/>
<line fill="#000000" stroke="#000000" stroke-width="1" x1="544" x2="544" y1="883" y2="878"/>
<line fill="#000000" stroke="#000000" stroke-width="1" x1="544" x2="544" y1="873" y2="868"/>
<line fill="#000000" stroke="#000000" stroke-width="1" x1="544" x2="544" y1="863" y2="858"/>
<line fill="#000000" stroke="#000000" stroke-width="1" x1="544" x2="544" y1="853" y2="848"/>
<line fill="#000000" stroke="#000000" stroke-width="1" x1="544" x2="544" y1="843" y2="838"/>
<line fill="#000000" stroke="#000000" stroke-width="1" x1="544" x2="544" y1="833" y2="828"/>
<line fill="#000000" stroke="#000000" stroke-width="1" x1="544" x2="544" y1="823" y2="818"/>
<line fill="#000000" stroke="#000000" stroke-width="1" x1="544" x2="544" y1="813" y2="808"/>
<line fill="#000000" stroke="#000000" stroke-width="1" x1="544" x2="544" y1="803" y2="798"/>
<line fill="#000000" stroke="#000000" stroke-width="1" x1="544" x2="544" y1="793" y2="788"/>
<line fill="#000000" stroke="#000000" stroke-width="1" x1="544" x2="544" y1="783" y2="778"/>
<line fill="#000000" stroke="#000000" stroke-width="1" x1="544" x2="544" y1="773" y2="768"/>
<line fill="#000000" stroke="#000000" stroke-width="1" x1="544" x2="544" y1="763" y2="758"/>
<line fill="#000000" stroke="#000000" stroke-width="1" x1="544" x2="544" y1="753" y2="748"/>
<line fill="#000000" stroke="#000000" stroke-width="1" x1="544" x2="544" y1="743" y2="738"/>
<line fill="#000000" stroke="#000000" stroke-width="1" x1="544" x2="544" y1="733" y2="728"/>
<line fill="#000000" stroke="#000000" stroke-width="1" x1="544" x2="544" y1="723" y2="718"/>
<line fill="#000000" stroke="#000000" stroke-width="1" x1="544" x2="544" y1="713" y2="708"/>
<line fill="#000000" stroke="#000000" stroke-width="1" x1="544" x2="544" y1="703" y2="698"/>
<line fill="#000000" stroke="#000000" stroke-width="1" x1="544" x2="544" y1="693" y2="688"/>
<line fill="#000000" stroke="#000000" stroke-width="1" x1="544" x2="544" y1="683" y2="678"/>
<line fill="#000000" stroke="#000000" stroke-width="1" x1="544" x2="544" y1="673" y2="668"/>
<line fill="#000000" stroke="#000000" stroke-width="1" x1="544" x2="544" y1="663" y2="658"/>
<line fill="#000000" stroke="#000000" stroke-width="1" x1="544" x2="544" y1="653" y2="648"/>
<line fill="#000000" stroke="#000000" stroke-width="1" x1="544" x2="544" y1="643" y2="638"/>
<line fill="#000000" stroke="#000000" stroke-width="1" x1="544" x2="544" y1="633" y2="628"/>
<line fill="#000000" stroke="#000000" stroke-width="1" x1="544" x2="544" y1="623" y2="618"/>
<line fill="#000000" stroke="#000000" stroke-width="1" x1="544" x2="544" y1="613" y2="608"/>
<line fill="#000000" stroke="#000000" stroke-width="1" x1="544" x2="544" y1="603" y2="598"/>
<line fill="#000000" stroke="#000000" stroke-width="1" x1="544" x2="544" y1="593" y2="588"/>
<line fill="#000000" stroke="#000000" stroke-width="1" x1="544" x2="544" y1="583" y2="578"/>
<line fill="#000000" stroke="#000000" stroke-width="1" x1="544" x2="544" y1="573" y2="568"/>
<line fill="#000000" stroke="#000000" stroke-width="1" x1="544" x2="544" y1="563" y2="558"/>
<line fill="#000000" stroke="#000000" stroke-width="1" x1="544" x2="544" y1="553" y2="548"/>
<line fill="#000000" stroke="#000000" stroke-width="1" x1="544" x2="544" y1="543" y2="538"/>
<line fill="#000000" stroke="#000000" stroke-width="1" x1="544" x2="544" y1="533" y2="528"/>
<line fill="#000000" stroke="#000000" stroke-width="1" x1="544" x2="544" y1="523" y2="518"/>
<line fill="#000000" stroke="#000000" stroke-width="1" x1="544" x2="544" y1="513" y2="508"/>
<line fill="#000000" stroke="#000000" stroke-width="1" x1="544" x2="544" y1="503" y2="498"/>
<line fill="#000000" stroke="#000000" stroke-width="1" x1="544" x2="544" y1="493" y2="488"/>
<line fill="#000000" stroke="#000000" stroke-width="1" x1="544" x2="544" y1="483" y2="478"/>
<line fill="#000000" stroke="#000000" stroke-width="1" x1="544" x2="544" y1="473" y2="468"/>
<line fill="#000000" stroke="#000000" stroke-width="1" x1="544" x2="544" y1="463" y2="458"/>
<line fill="#000000" stroke="#000000" stroke-width="1" x1="544" x2="544" y1="453" y2="448"/>
<line fill="#000000" stroke="#000000" stroke-width="1" x1="544" x2="544" y1="443" y2="438"/>
<line fill="#000000" stroke="#000000" stroke-width="1" x1="544" x2="544" y1="433" y2="428"/>
<line fill="#000000" stroke="#000000" stroke-width="1" x1="544" x2="544" y1="423" y2="418"/>
<line fill="#000000" stroke="#000000" stroke-width="1" x1="544" x2="544" y1="413" y2="408"/>
<line fill="#000000" stroke="#000000" stroke-width="1" x1="544" x2="544" y1="403" y2="398"/>
<line fill="#000000" stroke="#000000" stroke-width="1" x1="544" x2="544" y1="393" y2="388"/>
<line fill="#000000" stroke="#000000" stroke-width="1" x1="544" x2="544" y1="383" y2="378"/>
<line fill="#000000" stroke="#000000" stroke-width="1" x1="544" x2="544" y1="373" y2="368"/>
<line fill="#000000" stroke="#000000" stroke-width="1" x1="544" x2="544" y1="363" y2="358"/>
<line fill="#000000" stroke="#000000" stroke-width="1" x1="544" x2="544" y1="353" y2="348"/>
<line fill="#000000" stroke="#000000" stroke-width="1" x1="544" x2="544" y1="343" y2="338"/>
<line fill="#000000" stroke="#000000" stroke-width="1" x1="544" x2="544" y1="333" y2="328"/>
<line fill="#000000" stroke="#000000" stroke-width="1" x1="544" x2="544" y1="323" y2="318"/>
<line fill="#000000" stroke="#000000" stroke-width="1" x1="544" x2="544" y1="313" y2="308"/>
<line fill="#000000" stroke="#000000" stroke-width="1" x1="544" x2="544" y1="303" y2="298"/>
<line fill="#000000" stroke="#000000" stroke-width="1" x1="544" x2="544" y1="293" y2="288"/>
<line fill="#000000" stroke="#000000" stroke-width="1" x1="544" x2="544" y1="283" y2="278"/>
<line fill="#000000" stroke="#000000" stroke-width="1" x1="544" x2="544" y1="273" y2="268"/>
<line fill="#000000" stroke="#000000" stroke-width="1" x1="544" x2="544" y1="263" y2="258"/>
<line fill="#000000" stroke="#000000" stroke-width="1" x1="544" x2="544" y1="253" y2="248"/>
<line fill="#000000" stroke="#000000" stroke-width="1" x1="544" x2="544" y1="243" y2="238"/>
<line fill="#000000" stroke="#000000" stroke-width="1" x1="544" x2="544" y1="233" y2="229"/>
<line fill="#000000" stroke="#000000" stroke-width="1" x1="544" x2="549" y1="229" y2="229"/>
<line fill="#000000" stroke="#000000" stroke-width="1" x1="554" x2="559" y1="229" y2="229"/>
<line fill="#000000" stroke="#000000" stroke-width="1" x1="564" x2="569" y1="229" y2="229"/>
<line fill="#000000" stroke="#000000" stroke-width="1" x1="574" x2="579" y1="229" y2="229"/>
<line fill="#000000" stroke="#000000" stroke-width="1" x1="584" x2="589" y1="229" y2="229"/>
<line fill="#000000" stroke="#000000" stroke-width="1" x1="594" x2="599" y1="229" y2="229"/>
<line fill="#000000" stroke="#000000" stroke-width="1" x1="604" x2="609" y1="229" y2="229"/>
<line fill="#000000" stroke="#000000" stroke-width="1" x1="614" x2="619" y1="229" y2="229"/>
<line fill="#000000" stroke="#000000" stroke-width="1" x1="624" x2="629" y1="229" y2="229"/>
<line fill="#000000" stroke="#000000" stroke-width="1" x1="634" x2="639" y1="229" y2="229"/>
<line fill="#000000" stroke="#000000" stroke-width="1" x1="644" x2="649" y1="229" y2="229"/>
<line fill="#000000" stroke="#000000" stroke-width="1" x1="654" x2="659" y1="229" y2="229"/>
<line fill="#000000" stroke="#000000" stroke-width="1" x1="664" x2="669" y1="229" y2="229"/>
<line fill="#000000" stroke="#000000" stroke-width="1" x1="674" x2="679" y1="229" y2="229"/>
<line fill="#000000" stroke="#000000" stroke-width="1" x1="684" x2="689" y1="229" y2="229"/>
<line fill="#000000" stroke="#000000" stroke-width="1" x1="694" x2="699" y1="229" y2="229"/>
<line fill="#000000" stroke="#000000" stroke-width="1" x1="704" x2="709" y1="229" y2="229"/>
<line fill="#000000" stroke="#000000" stroke-width="1" x1="714" x2="719" y1="229" y2="229"/>
<line fill="#000000" stroke="#000000" stroke-width="1" x1="724" x2="729" y1="229" y2="229"/>
<line fill="#000000" stroke="#000000" stroke-width="1" x1="734" x2="736" y1="229" y2="229"/>
<polygon fill="#ffffff" points="736,229 724,236 724,222" stroke="#ffffff" stroke-width="1"/>
<polygon fill="none" points="736,229 724,236 724,222" stroke="#000000" stroke-width="1"/>
<text font-family="Dialog" font-size="12" x="567" y="222">
&lt;&lt;realize&gt;&gt;</text>
<rect fill="#ffffff" height="67" stroke="#ffffff" stroke-width="1" width="112" x="880" y="1053"/>
<rect fill="none" height="67" stroke="#000000" stroke-width="1" width="112" x="880" y="1053"/>
<text font-family="Dialog" font-size="12" x="904" y="1067">
+ std::string</text>
<rect fill="#000000" height="1" stroke="#000000" stroke-width="1" width="112" x="880" y="1077"/>
<rect fill="#000000" height="1" stroke="#000000" stroke-width="1" width="112" x="880" y="1098"/>
<rect fill="#ffffff" height="67" stroke="#ffffff" stroke-width="1" width="144" x="576" y="1053"/>
<rect fill="none" height="67" stroke="#000000" stroke-width="1" width="144" x="576" y="1053"/>
<text font-family="Dialog" font-size="12" x="582" y="1067">
+ rdo::gui::model::Model</text>
<rect fill="#000000" height="1" stroke="#000000" stroke-width="1" width="144" x="576" y="1077"/>
<rect fill="#000000" height="1" stroke="#000000" stroke-width="1" width="144" x="576" y="1098"/>
<rect fill="#ffffff" height="602" stroke="#ffffff" stroke-width="1" width="352" x="1056" y="613"/>
<rect fill="none" height="602" stroke="#000000" stroke-width="1" width="352" x="1056" y="613"/>
<text font-family="Dialog" font-size="12" x="1112" y="627">
+ Ui_PluginGame5GenerateSituationDialog</text>
<rect fill="#000000" height="1" stroke="#000000" stroke-width="1" width="352" x="1056" y="637"/>
<text font-family="Dialog" font-size="12" x="1060" y="652">
+hiddenWidget : QWidget</text>
<text font-family="Dialog" font-size="12" x="1060" y="669">
+radioButtonCustom : QRadioButton</text>
<text font-family="Dialog" font-size="12" x="1060" y="686">
+radioButtonDistance : QRadioButton</text>
<text font-family="Dialog" font-size="12" x="1060" y="703">
+radioButton0 : QRadioButton</text>
<text font-family="Dialog" font-size="12" x="1060" y="720">
+radioButtonQuantity : QRadioButton</text>
<text font-family="Dialog" font-size="12" x="1060" y="737">
+lineEditCustom : QLineEdit</text>
<text font-family="Dialog" font-size="12" x="1060" y="754">
+checkBoxCopareTop : QCheckBox</text>
<text font-family="Dialog" font-size="12" x="1060" y="771">
+tableCostValue : CostSetupTable</text>
<text font-family="Dialog" font-size="12" x="1060" y="788">
+mainWidget : QWidget</text>
<text font-family="Dialog" font-size="12" x="1060" y="805">
+buttonRandomLineup : QPushButton</text>
<text font-family="Dialog" font-size="12" x="1060" y="822">
+buttonRightLineup : QPushButton</text>
<text font-family="Dialog" font-size="12" x="1060" y="839">
+solvabilityCheck : QCheckBox</text>
<text font-family="Dialog" font-size="12" x="1060" y="856">
+buttonHide : QPushButton</text>
<text font-family="Dialog" font-size="12" x="1060" y="873">
+buttonOk : QPushButton</text>
<text font-family="Dialog" font-size="12" x="1060" y="890">
+buttonSetLineup : QPushButton</text>
<text font-family="Dialog" font-size="12" x="1060" y="907">
+gameBoard : Board</text>
<text font-family="Dialog" font-size="12" x="1060" y="924">
+headerLabelDirection : QLabel</text>
<text font-family="Dialog" font-size="12" x="1060" y="941">
+headerLabelCalc : QLabel</text>
<text font-family="Dialog" font-size="12" x="1060" y="958">
+moveRightLabel : QLabel</text>
<text font-family="Dialog" font-size="12" x="1060" y="975">
+moveRightCalcSwitcher : QComboBox</text>
<text font-family="Dialog" font-size="12" x="1060" y="992">
+moveLeftLabel : QLabel</text>
<text font-family="Dialog" font-size="12" x="1060" y="1009">
+moveLeftCalcSwitcher : QComboBox</text>
<text font-family="Dialog" font-size="12" x="1060" y="1026">
+moveUpLabel : QLabel</text>
<text font-family="Dialog" font-size="12" x="1060" y="1043">
+moveUpCalcSwitcher : QComboBox</text>
<text font-family="Dialog" font-size="12" x="1060" y="1060">
+moveDownLabel : QLabel</text>
<text font-family="Dialog" font-size="12" x="1060" y="1077">
+moveDownCalcSwitcher : QComboBox</text>
<text font-family="Dialog" font-size="12" x="1060" y="1094">
+headerLabelCost : QLabel</text>
<text font-family="Dialog" font-size="12" x="1060" y="1111">
+moveRightCost : CheckableLineEdit</text>
<text font-family="Dialog" font-size="12" x="1060" y="1128">
+moveLeftCost : CheckableLineEdit</text>
<text font-family="Dialog" font-size="12" x="1060" y="1145">
+moveUpCost : CheckableLineEdit</text>
<text font-family="Dialog" font-size="12" x="1060" y="1162">
+moveDownCost : CheckableLineEdit</text>
<rect fill="#000000" height="1" stroke="#000000" stroke-width="1" width="352" x="1056" y="1172"/>
<text font-family="Dialog" font-size="12" x="1060" y="1187">
+setupUi(PluginGame5GenerateSituationDialog : QDialog)</text>
<text font-family="Dialog" font-size="12" x="1060" y="1204">
+retranslateUi(PluginGame5GraphDialog : QDialog)</text>
<polyline fill="none" points="991,821 1056,821" stroke="#000000" stroke-width="1"/>
<polygon fill="#ffffff" points="1056,821 1044,828 1044,814" stroke="#ffffff" stroke-width="1"/>
<polygon fill="none" points="1056,821 1044,828 1044,814" stroke="#000000" stroke-width="1"/>
<rect fill="#ffffff" height="67" stroke="#ffffff" stroke-width="1" width="96" x="1432" y="613"/>
<rect fill="none" height="67" stroke="#000000" stroke-width="1" width="96" x="1432" y="613"/>
<text font-family="Dialog" font-size="12" x="1451" y="627">
+ QWidget</text>
<rect fill="#000000" height="1" stroke="#000000" stroke-width="1" width="96" x="1432" y="637"/>
<rect fill="#000000" height="1" stroke="#000000" stroke-width="1" width="96" x="1432" y="658"/>
<rect fill="#ffffff" height="68" stroke="#ffffff" stroke-width="1" width="97" x="1432" y="701"/>
<rect fill="none" height="68" stroke="#000000" stroke-width="1" width="97" x="1432" y="701"/>
<text font-family="Dialog" font-size="12" x="1437" y="715">
+ QRadioButton</text>
<rect fill="#000000" height="1" stroke="#000000" stroke-width="1" width="97" x="1432" y="725"/>
<rect fill="#000000" height="1" stroke="#000000" stroke-width="1" width="97" x="1432" y="746"/>
<rect fill="#ffffff" height="68" stroke="#ffffff" stroke-width="1" width="96" x="1056" y="517"/>
<rect fill="none" height="68" stroke="#000000" stroke-width="1" width="96" x="1056" y="517"/>
<text font-family="Dialog" font-size="12" x="1062" y="531">
+ QPushButton</text>
<rect fill="#000000" height="1" stroke="#000000" stroke-width="1" width="96" x="1056" y="541"/>
<rect fill="#000000" height="1" stroke="#000000" stroke-width="1" width="96" x="1056" y="562"/>
<rect fill="#ffffff" height="68" stroke="#ffffff" stroke-width="1" width="96" x="1312" y="517"/>
<rect fill="none" height="68" stroke="#000000" stroke-width="1" width="96" x="1312" y="517"/>
<text font-family="Dialog" font-size="12" x="1328" y="531">
+ QLineEdit</text>
<rect fill="#000000" height="1" stroke="#000000" stroke-width="1" width="96" x="1312" y="541"/>
<rect fill="#000000" height="1" stroke="#000000" stroke-width="1" width="96" x="1312" y="562"/>
<rect fill="#ffffff" height="68" stroke="#ffffff" stroke-width="1" width="96" x="1432" y="805"/>
<rect fill="none" height="68" stroke="#000000" stroke-width="1" width="96" x="1432" y="805"/>
<text font-family="Dialog" font-size="12" x="1443" y="819">
+ QCheckBox</text>
<rect fill="#000000" height="1" stroke="#000000" stroke-width="1" width="96" x="1432" y="829"/>
<rect fill="#000000" height="1" stroke="#000000" stroke-width="1" width="96" x="1432" y="850"/>
<rect fill="#ffffff" height="68" stroke="#ffffff" stroke-width="1" width="112" x="1520" y="1141"/>
<rect fill="none" height="68" stroke="#000000" stroke-width="1" width="112" x="1520" y="1141"/>
<text font-family="Dialog" font-size="12" x="1554" y="1155">
+ Board</text>
<rect fill="#000000" height="1" stroke="#000000" stroke-width="1" width="112" x="1520" y="1165"/>
<rect fill="#000000" height="1" stroke="#000000" stroke-width="1" width="112" x="1520" y="1186"/>
<polyline fill="none" points="1407,1176 1520,1176" stroke="#000000" stroke-width="1"/>
<line fill="#000000" stroke="#000000" stroke-width="1" x1="1508" x2="1520" y1="1183" y2="1176"/>
<line fill="#000000" stroke="#000000" stroke-width="1" x1="1508" x2="1520" y1="1169" y2="1176"/>
<text font-family="Dialog" font-size="12" x="1432" y="1156">
 </text>
<polyline fill="none" points="1407,653 1432,653" stroke="#000000" stroke-width="1"/>
<line fill="#000000" stroke="#000000" stroke-width="1" x1="1420" x2="1432" y1="660" y2="653"/>
<line fill="#000000" stroke="#000000" stroke-width="1" x1="1420" x2="1432" y1="646" y2="653"/>
<text font-family="Dialog" font-size="12" x="1388" y="633">
 </text>
<polyline fill="none" points="1407,741 1432,741" stroke="#000000" stroke-width="1"/>
<line fill="#000000" stroke="#000000" stroke-width="1" x1="1420" x2="1432" y1="748" y2="741"/>
<line fill="#000000" stroke="#000000" stroke-width="1" x1="1420" x2="1432" y1="734" y2="741"/>
<text font-family="Dialog" font-size="12" x="1388" y="721">
 </text>
<polyline fill="none" points="1104,613 1104,584" stroke="#000000" stroke-width="1"/>
<line fill="#000000" stroke="#000000" stroke-width="1" x1="1111" x2="1104" y1="596" y2="584"/>
<line fill="#000000" stroke="#000000" stroke-width="1" x1="1097" x2="1104" y1="596" y2="584"/>
<text font-family="Dialog" font-size="12" x="1026" y="604">
 </text>
<polyline fill="none" points="1360,613 1360,584" stroke="#000000" stroke-width="1"/>
<line fill="#000000" stroke="#000000" stroke-width="1" x1="1367" x2="1360" y1="596" y2="584"/>
<line fill="#000000" stroke="#000000" stroke-width="1" x1="1353" x2="1360" y1="596" y2="584"/>
<text font-family="Dialog" font-size="12" x="1282" y="609">
 </text>
<polyline fill="none" points="1407,845 1432,845" stroke="#000000" stroke-width="1"/>
<line fill="#000000" stroke="#000000" stroke-width="1" x1="1420" x2="1432" y1="852" y2="845"/>
<line fill="#000000" stroke="#000000" stroke-width="1" x1="1420" x2="1432" y1="838" y2="845"/>
<text font-family="Dialog" font-size="12" x="1959" y="1080">
 </text>
<rect fill="#ffffff" height="194" stroke="#ffffff" stroke-width="1" width="416" x="576" y="1157"/>
<rect fill="none" height="194" stroke="#000000" stroke-width="1" width="416" x="576" y="1157"/>
<text font-family="Dialog" font-size="12" x="720" y="1171">
+ MultiSelectCompleter</text>
<rect fill="#000000" height="1" stroke="#000000" stroke-width="1" width="416" x="576" y="1180"/>
<text font-family="Dialog" font-size="12" x="580" y="1195">
-m_cursorPos : int</text>
<text font-family="Dialog" font-size="12" x="580" y="1211">
-m_selectionLen : int</text>
<rect fill="#000000" height="1" stroke="#000000" stroke-width="1" width="416" x="576" y="1225"/>
<text font-family="Dialog" font-size="12" x="580" y="1240">
+MultiSelectCompleter(items : QStringList,parent : QObject)</text>
<text font-family="Dialog" font-size="12" x="580" y="1256">
+~MultiSelectCompleter()</text>
<text font-family="Dialog" font-size="12" font-style="italic" x="580" y="1272">
+pathFromIndex(index : QModelIndex) : QString</text>
<text font-family="Dialog" font-size="12" font-style="italic" x="580" y="1288">
+splitPath(path : QString) : QStringList</text>
<text font-family="Dialog" font-size="12" x="580" y="1304">
+changeSelection(cursorPos : int,selectionLen : int)</text>
<text font-family="Dialog" font-size="12" x="580" y="1320">
-onLineEditTextChanged()</text>
<text font-family="Dialog" font-size="12" x="580" y="1336">
-setSelection(cursorPos : int,selectionLen : int)</text>
<rect fill="#ffffff" height="68" stroke="#ffffff" stroke-width="1" width="112" x="744" y="1053"/>
<rect fill="none" height="68" stroke="#000000" stroke-width="1" width="112" x="744" y="1053"/>
<text font-family="Dialog" font-size="12" x="761" y="1067">
+ QCompleter</text>
<rect fill="#000000" height="1" stroke="#000000" stroke-width="1" width="112" x="744" y="1077"/>
<rect fill="#000000" height="1" stroke="#000000" stroke-width="1" width="112" x="744" y="1098"/>
<line fill="#000000" stroke="#000000" stroke-width="1" x1="576" x2="571" y1="1189" y2="1189"/>
<line fill="#000000" stroke="#000000" stroke-width="1" x1="566" x2="561" y1="1189" y2="1189"/>
<line fill="#000000" stroke="#000000" stroke-width="1" x1="556" x2="551" y1="1189" y2="1189"/>
<line fill="#000000" stroke="#000000" stroke-width="1" x1="546" x2="541" y1="1189" y2="1189"/>
<line fill="#000000" stroke="#000000" stroke-width="1" x1="536" x2="531" y1="1189" y2="1189"/>
<line fill="#000000" stroke="#000000" stroke-width="1" x1="528" x2="528" y1="1189" y2="1184"/>
<line fill="#000000" stroke="#000000" stroke-width="1" x1="528" x2="528" y1="1179" y2="1174"/>
<line fill="#000000" stroke="#000000" stroke-width="1" x1="528" x2="528" y1="1169" y2="1164"/>
<line fill="#000000" stroke="#000000" stroke-width="1" x1="528" x2="528" y1="1159" y2="1154"/>
<line fill="#000000" stroke="#000000" stroke-width="1" x1="528" x2="528" y1="1149" y2="1144"/>
<line fill="#000000" stroke="#000000" stroke-width="1" x1="528" x2="528" y1="1139" y2="1134"/>
<line fill="#000000" stroke="#000000" stroke-width="1" x1="528" x2="528" y1="1129" y2="1124"/>
<line fill="#000000" stroke="#000000" stroke-width="1" x1="528" x2="528" y1="1119" y2="1114"/>
<line fill="#000000" stroke="#000000" stroke-width="1" x1="528" x2="528" y1="1109" y2="1104"/>
<line fill="#000000" stroke="#000000" stroke-width="1" x1="528" x2="528" y1="1099" y2="1094"/>
<line fill="#000000" stroke="#000000" stroke-width="1" x1="528" x2="528" y1="1089" y2="1084"/>
<line fill="#000000" stroke="#000000" stroke-width="1" x1="528" x2="528" y1="1079" y2="1074"/>
<line fill="#000000" stroke="#000000" stroke-width="1" x1="528" x2="528" y1="1069" y2="1064"/>
<line fill="#000000" stroke="#000000" stroke-width="1" x1="528" x2="528" y1="1059" y2="1054"/>
<line fill="#000000" stroke="#000000" stroke-width="1" x1="528" x2="528" y1="1049" y2="1044"/>
<line fill="#000000" stroke="#000000" stroke-width="1" x1="528" x2="528" y1="1039" y2="1034"/>
<line fill="#000000" stroke="#000000" stroke-width="1" x1="528" x2="528" y1="1029" y2="1024"/>
<line fill="#000000" stroke="#000000" stroke-width="1" x1="528" x2="528" y1="1019" y2="1014"/>
<line fill="#000000" stroke="#000000" stroke-width="1" x1="528" x2="528" y1="1009" y2="1004"/>
<line fill="#000000" stroke="#000000" stroke-width="1" x1="528" x2="528" y1="999" y2="994"/>
<line fill="#000000" stroke="#000000" stroke-width="1" x1="528" x2="528" y1="989" y2="984"/>
<line fill="#000000" stroke="#000000" stroke-width="1" x1="528" x2="528" y1="979" y2="974"/>
<line fill="#000000" stroke="#000000" stroke-width="1" x1="528" x2="528" y1="969" y2="964"/>
<line fill="#000000" stroke="#000000" stroke-width="1" x1="528" x2="528" y1="959" y2="954"/>
<line fill="#000000" stroke="#000000" stroke-width="1" x1="528" x2="528" y1="949" y2="944"/>
<line fill="#000000" stroke="#000000" stroke-width="1" x1="528" x2="528" y1="939" y2="934"/>
<line fill="#000000" stroke="#000000" stroke-width="1" x1="528" x2="528" y1="929" y2="924"/>
<line fill="#000000" stroke="#000000" stroke-width="1" x1="528" x2="528" y1="919" y2="914"/>
<line fill="#000000" stroke="#000000" stroke-width="1" x1="528" x2="528" y1="909" y2="904"/>
<line fill="#000000" stroke="#000000" stroke-width="1" x1="528" x2="528" y1="899" y2="894"/>
<line fill="#000000" stroke="#000000" stroke-width="1" x1="528" x2="528" y1="889" y2="884"/>
<line fill="#000000" stroke="#000000" stroke-width="1" x1="528" x2="528" y1="879" y2="874"/>
<line fill="#000000" stroke="#000000" stroke-width="1" x1="528" x2="528" y1="869" y2="864"/>
<line fill="#000000" stroke="#000000" stroke-width="1" x1="528" x2="528" y1="859" y2="854"/>
<line fill="#000000" stroke="#000000" stroke-width="1" x1="528" x2="528" y1="849" y2="844"/>
<line fill="#000000" stroke="#000000" stroke-width="1" x1="528" x2="528" y1="839" y2="834"/>
<line fill="#000000" stroke="#000000" stroke-width="1" x1="528" x2="528" y1="829" y2="824"/>
<line fill="#000000" stroke="#000000" stroke-width="1" x1="528" x2="528" y1="819" y2="814"/>
<line fill="#000000" stroke="#000000" stroke-width="1" x1="528" x2="528" y1="809" y2="804"/>
<line fill="#000000" stroke="#000000" stroke-width="1" x1="528" x2="528" y1="799" y2="794"/>
<line fill="#000000" stroke="#000000" stroke-width="1" x1="528" x2="528" y1="789" y2="784"/>
<line fill="#000000" stroke="#000000" stroke-width="1" x1="528" x2="528" y1="779" y2="774"/>
<line fill="#000000" stroke="#000000" stroke-width="1" x1="528" x2="528" y1="769" y2="764"/>
<line fill="#000000" stroke="#000000" stroke-width="1" x1="528" x2="528" y1="759" y2="754"/>
<line fill="#000000" stroke="#000000" stroke-width="1" x1="528" x2="528" y1="749" y2="744"/>
<line fill="#000000" stroke="#000000" stroke-width="1" x1="528" x2="528" y1="739" y2="734"/>
<line fill="#000000" stroke="#000000" stroke-width="1" x1="528" x2="528" y1="729" y2="724"/>
<line fill="#000000" stroke="#000000" stroke-width="1" x1="528" x2="528" y1="719" y2="714"/>
<line fill="#000000" stroke="#000000" stroke-width="1" x1="528" x2="528" y1="709" y2="704"/>
<line fill="#000000" stroke="#000000" stroke-width="1" x1="528" x2="528" y1="699" y2="694"/>
<line fill="#000000" stroke="#000000" stroke-width="1" x1="528" x2="528" y1="689" y2="684"/>
<line fill="#000000" stroke="#000000" stroke-width="1" x1="528" x2="528" y1="679" y2="674"/>
<line fill="#000000" stroke="#000000" stroke-width="1" x1="528" x2="528" y1="669" y2="664"/>
<line fill="#000000" stroke="#000000" stroke-width="1" x1="528" x2="528" y1="659" y2="654"/>
<line fill="#000000" stroke="#000000" stroke-width="1" x1="528" x2="528" y1="649" y2="644"/>
<line fill="#000000" stroke="#000000" stroke-width="1" x1="528" x2="528" y1="639" y2="634"/>
<line fill="#000000" stroke="#000000" stroke-width="1" x1="528" x2="528" y1="629" y2="624"/>
<line fill="#000000" stroke="#000000" stroke-width="1" x1="528" x2="528" y1="619" y2="614"/>
<line fill="#000000" stroke="#000000" stroke-width="1" x1="528" x2="528" y1="609" y2="604"/>
<line fill="#000000" stroke="#000000" stroke-width="1" x1="528" x2="528" y1="599" y2="594"/>
<line fill="#000000" stroke="#000000" stroke-width="1" x1="528" x2="528" y1="589" y2="584"/>
<line fill="#000000" stroke="#000000" stroke-width="1" x1="528" x2="528" y1="579" y2="574"/>
<line fill="#000000" stroke="#000000" stroke-width="1" x1="528" x2="528" y1="569" y2="564"/>
<line fill="#000000" stroke="#000000" stroke-width="1" x1="528" x2="528" y1="559" y2="554"/>
<line fill="#000000" stroke="#000000" stroke-width="1" x1="528" x2="528" y1="549" y2="544"/>
<line fill="#000000" stroke="#000000" stroke-width="1" x1="528" x2="528" y1="539" y2="534"/>
<line fill="#000000" stroke="#000000" stroke-width="1" x1="528" x2="528" y1="529" y2="524"/>
<line fill="#000000" stroke="#000000" stroke-width="1" x1="528" x2="528" y1="519" y2="514"/>
<line fill="#000000" stroke="#000000" stroke-width="1" x1="528" x2="528" y1="509" y2="504"/>
<line fill="#000000" stroke="#000000" stroke-width="1" x1="528" x2="528" y1="499" y2="494"/>
<line fill="#000000" stroke="#000000" stroke-width="1" x1="528" x2="528" y1="489" y2="484"/>
<line fill="#000000" stroke="#000000" stroke-width="1" x1="528" x2="528" y1="479" y2="474"/>
<line fill="#000000" stroke="#000000" stroke-width="1" x1="528" x2="528" y1="469" y2="464"/>
<line fill="#000000" stroke="#000000" stroke-width="1" x1="528" x2="528" y1="459" y2="454"/>
<line fill="#000000" stroke="#000000" stroke-width="1" x1="528" x2="528" y1="449" y2="444"/>
<line fill="#000000" stroke="#000000" stroke-width="1" x1="528" x2="528" y1="439" y2="434"/>
<line fill="#000000" stroke="#000000" stroke-width="1" x1="528" x2="528" y1="429" y2="424"/>
<line fill="#000000" stroke="#000000" stroke-width="1" x1="528" x2="528" y1="419" y2="414"/>
<line fill="#000000" stroke="#000000" stroke-width="1" x1="528" x2="528" y1="409" y2="404"/>
<line fill="#000000" stroke="#000000" stroke-width="1" x1="528" x2="528" y1="399" y2="394"/>
<line fill="#000000" stroke="#000000" stroke-width="1" x1="528" x2="528" y1="389" y2="384"/>
<line fill="#000000" stroke="#000000" stroke-width="1" x1="528" x2="528" y1="379" y2="374"/>
<line fill="#000000" stroke="#000000" stroke-width="1" x1="528" x2="528" y1="369" y2="364"/>
<line fill="#000000" stroke="#000000" stroke-width="1" x1="528" x2="528" y1="359" y2="354"/>
<line fill="#000000" stroke="#000000" stroke-width="1" x1="528" x2="528" y1="349" y2="344"/>
<line fill="#000000" stroke="#000000" stroke-width="1" x1="528" x2="528" y1="339" y2="334"/>
<line fill="#000000" stroke="#000000" stroke-width="1" x1="528" x2="528" y1="329" y2="324"/>
<line fill="#000000" stroke="#000000" stroke-width="1" x1="528" x2="528" y1="319" y2="314"/>
<line fill="#000000" stroke="#000000" stroke-width="1" x1="528" x2="528" y1="309" y2="304"/>
<line fill="#000000" stroke="#000000" stroke-width="1" x1="528" x2="528" y1="299" y2="294"/>
<line fill="#000000" stroke="#000000" stroke-width="1" x1="528" x2="528" y1="289" y2="284"/>
<line fill="#000000" stroke="#000000" stroke-width="1" x1="528" x2="528" y1="279" y2="274"/>
<line fill="#000000" stroke="#000000" stroke-width="1" x1="528" x2="528" y1="269" y2="264"/>
<line fill="#000000" stroke="#000000" stroke-width="1" x1="528" x2="528" y1="259" y2="254"/>
<line fill="#000000" stroke="#000000" stroke-width="1" x1="528" x2="528" y1="249" y2="244"/>
<line fill="#000000" stroke="#000000" stroke-width="1" x1="528" x2="528" y1="239" y2="234"/>
<line fill="#000000" stroke="#000000" stroke-width="1" x1="528" x2="528" y1="229" y2="224"/>
<line fill="#000000" stroke="#000000" stroke-width="1" x1="528" x2="528" y1="219" y2="214"/>
<line fill="#000000" stroke="#000000" stroke-width="1" x1="528" x2="528" y1="209" y2="204"/>
<line fill="#000000" stroke="#000000" stroke-width="1" x1="528" x2="528" y1="199" y2="197"/>
<line fill="#000000" stroke="#000000" stroke-width="1" x1="528" x2="533" y1="197" y2="197"/>
<line fill="#000000" stroke="#000000" stroke-width="1" x1="538" x2="543" y1="197" y2="197"/>
<line fill="#000000" stroke="#000000" stroke-width="1" x1="548" x2="553" y1="197" y2="197"/>
<line fill="#000000" stroke="#000000" stroke-width="1" x1="558" x2="563" y1="197" y2="197"/>
<line fill="#000000" stroke="#000000" stroke-width="1" x1="568" x2="573" y1="197" y2="197"/>
<line fill="#000000" stroke="#000000" stroke-width="1" x1="578" x2="583" y1="197" y2="197"/>
<line fill="#000000" stroke="#000000" stroke-width="1" x1="588" x2="593" y1="197" y2="197"/>
<line fill="#000000" stroke="#000000" stroke-width="1" x1="598" x2="603" y1="197" y2="197"/>
<line fill="#000000" stroke="#000000" stroke-width="1" x1="608" x2="613" y1="197" y2="197"/>
<line fill="#000000" stroke="#000000" stroke-width="1" x1="618" x2="623" y1="197" y2="197"/>
<line fill="#000000" stroke="#000000" stroke-width="1" x1="628" x2="633" y1="197" y2="197"/>
<line fill="#000000" stroke="#000000" stroke-width="1" x1="638" x2="643" y1="197" y2="197"/>
<line fill="#000000" stroke="#000000" stroke-width="1" x1="648" x2="653" y1="197" y2="197"/>
<line fill="#000000" stroke="#000000" stroke-width="1" x1="658" x2="663" y1="197" y2="197"/>
<line fill="#000000" stroke="#000000" stroke-width="1" x1="668" x2="673" y1="197" y2="197"/>
<line fill="#000000" stroke="#000000" stroke-width="1" x1="678" x2="683" y1="197" y2="197"/>
<line fill="#000000" stroke="#000000" stroke-width="1" x1="688" x2="693" y1="197" y2="197"/>
<line fill="#000000" stroke="#000000" stroke-width="1" x1="698" x2="703" y1="197" y2="197"/>
<line fill="#000000" stroke="#000000" stroke-width="1" x1="708" x2="713" y1="197" y2="197"/>
<line fill="#000000" stroke="#000000" stroke-width="1" x1="718" x2="723" y1="197" y2="197"/>
<line fill="#000000" stroke="#000000" stroke-width="1" x1="728" x2="733" y1="197" y2="197"/>
<polygon fill="#ffffff" points="736,197 724,204 724,190" stroke="#ffffff" stroke-width="1"/>
<polygon fill="none" points="736,197 724,204 724,190" stroke="#000000" stroke-width="1"/>
<text font-family="Dialog" font-size="12" x="613" y="189">
&lt;&lt;realize&gt;&gt;</text>
<polyline fill="none" points="824,1157 824,1120" stroke="#000000" stroke-width="1"/>
<polygon fill="#ffffff" points="824,1120 831,1132 817,1132" stroke="#ffffff" stroke-width="1"/>
<polygon fill="none" points="824,1120 831,1132 817,1132" stroke="#000000" stroke-width="1"/>
<line fill="#000000" stroke="#000000" stroke-width="1" x1="776" x2="776" y1="1157" y2="1152"/>
<line fill="#000000" stroke="#000000" stroke-width="1" x1="776" x2="776" y1="1147" y2="1142"/>
<line fill="#000000" stroke="#000000" stroke-width="1" x1="776" x2="776" y1="1137" y2="1132"/>
<line fill="#000000" stroke="#000000" stroke-width="1" x1="776" x2="776" y1="1127" y2="1122"/>
<polygon fill="#ffffff" points="776,1120 783,1132 769,1132" stroke="#ffffff" stroke-width="1"/>
<polygon fill="none" points="776,1120 783,1132 769,1132" stroke="#000000" stroke-width="1"/>
<text font-family="Dialog" font-size="12" x="697" y="1152">
&lt;&lt;realize&gt;&gt;</text>
<rect fill="#ffffff" height="67" stroke="#ffffff" stroke-width="1" width="120" x="576" y="517"/>
<rect fill="none" height="67" stroke="#000000" stroke-width="1" width="120" x="576" y="517"/>
<text font-family="Dialog" font-size="12" x="610" y="531">
+ QString</text>
<rect fill="#000000" height="1" stroke="#000000" stroke-width="1" width="120" x="576" y="541"/>
<rect fill="#000000" height="1" stroke="#000000" stroke-width="1" width="120" x="576" y="562"/>
<polyline fill="none" points="936,1157 936,1119" stroke="#000000" stroke-width="1"/>
<line fill="#000000" stroke="#000000" stroke-width="1" x1="943" x2="936" y1="1131" y2="1119"/>
<line fill="#000000" stroke="#000000" stroke-width="1" x1="929" x2="936" y1="1131" y2="1119"/>
<text font-family="Dialog" font-size="12" x="997" y="1144">
 </text>
<polyline fill="none" points="872,1028 872,1157" stroke="#000000" stroke-width="1"/>
<line fill="#000000" stroke="#000000" stroke-width="1" x1="865" x2="872" y1="1145" y2="1157"/>
<line fill="#000000" stroke="#000000" stroke-width="1" x1="879" x2="872" y1="1145" y2="1157"/>
<text font-family="Dialog" font-size="12" x="888" y="1097">
 </text>
<polyline fill="none" points="936,1028 936,1053" stroke="#000000" stroke-width="1"/>
<line fill="#000000" stroke="#000000" stroke-width="1" x1="929" x2="936" y1="1041" y2="1053"/>
<line fill="#000000" stroke="#000000" stroke-width="1" x1="943" x2="936" y1="1041" y2="1053"/>
<text font-family="Dialog" font-size="12" x="951" y="1047">
 </text>
<polyline fill="none" points="663,1028 663,1053" stroke="#000000" stroke-width="1"/>
<line fill="#000000" stroke="#000000" stroke-width="1" x1="656" x2="663" y1="1041" y2="1053"/>
<line fill="#000000" stroke="#000000" stroke-width="1" x1="670" x2="663" y1="1041" y2="1053"/>
<text font-family="Dialog" font-size="12" x="594" y="955">
 </text>
<rect fill="#ffffff" height="160" stroke="#ffffff" stroke-width="1" width="416" x="576" y="325"/>
<rect fill="none" height="160" stroke="#000000" stroke-width="1" width="416" x="576" y="325"/>
<text font-family="Dialog" font-size="12" x="732" y="339">
+ TilesOrderDialog</text>
<rect fill="#000000" height="1" stroke="#000000" stroke-width="1" width="416" x="576" y="349"/>
<rect fill="#000000" height="1" stroke="#000000" stroke-width="1" width="416" x="576" y="380"/>
<text font-family="Dialog" font-size="12" x="580" y="395">
+TilesOrderDialog(parent : QWidget*,lineEditText : QString)</text>
<text font-family="Dialog" font-size="12" x="580" y="412">
+~TilesOrderDialog()</text>
<text font-family="Dialog" font-size="12" x="580" y="429">
+tilesOrderCommited(string : QString)</text>
<text font-family="Dialog" font-size="12" x="580" y="446">
-validatorRegExpPattern(value : int) : QString</text>
<text font-family="Dialog" font-size="12" x="580" y="463">
-onOkClick()</text>
<polyline fill="none" points="944,484 944,517" stroke="#000000" stroke-width="1"/>
<polygon fill="#ffffff" points="944,517 937,505 951,505" stroke="#ffffff" stroke-width="1"/>
<polygon fill="none" points="944,517 937,505 951,505" stroke="#000000" stroke-width="1"/>
<line fill="#000000" stroke="#000000" stroke-width="1" x1="792" x2="792" y1="325" y2="320"/>
<line fill="#000000" stroke="#000000" stroke-width="1" x1="792" x2="792" y1="315" y2="310"/>
<line fill="#000000" stroke="#000000" stroke-width="1" x1="792" x2="792" y1="305" y2="300"/>
<line fill="#000000" stroke="#000000" stroke-width="1" x1="792" x2="792" y1="295" y2="290"/>
<line fill="#000000" stroke="#000000" stroke-width="1" x1="792" x2="792" y1="285" y2="280"/>
<line fill="#000000" stroke="#000000" stroke-width="1" x1="792" x2="792" y1="275" y2="270"/>
<line fill="#000000" stroke="#000000" stroke-width="1" x1="792" x2="792" y1="265" y2="260"/>
<line fill="#000000" stroke="#000000" stroke-width="1" x1="792" x2="792" y1="255" y2="250"/>
<line fill="#000000" stroke="#000000" stroke-width="1" x1="792" x2="792" y1="245" y2="240"/>
<polygon fill="#ffffff" points="792,239 799,251 785,251" stroke="#ffffff" stroke-width="1"/>
<polygon fill="none" points="792,239 799,251 785,251" stroke="#000000" stroke-width="1"/>
<text font-family="Dialog" font-size="12" x="812" y="293">
&lt;&lt;realize&gt;&gt;</text>
<rect fill="#ffffff" height="160" stroke="#ffffff" stroke-width="1" width="344" x="1056" y="325"/>
<rect fill="none" height="160" stroke="#000000" stroke-width="1" width="344" x="1056" y="325"/>
<text font-family="Dialog" font-size="12" x="1134" y="339">
+ Ui_RAOgame5TilesOrderDialog</text>
<rect fill="#000000" height="1" stroke="#000000" stroke-width="1" width="344" x="1056" y="348"/>
<text font-family="Dialog" font-size="12" x="1060" y="363">
+buttonCancel : QPushButton</text>
<text font-family="Dialog" font-size="12" x="1060" y="379">
+buttonOk : QPushButton</text>
<text font-family="Dialog" font-size="12" x="1060" y="395">
+lineEditPosition : QLineEdit</text>
<rect fill="#000000" height="1" stroke="#000000" stroke-width="1" width="344" x="1056" y="424"/>
<text font-family="Dialog" font-size="12" x="1060" y="439">
+setupUi(*RAOgame5TilesOrderDialog : QDialog)</text>
<text font-family="Dialog" font-size="12" x="1060" y="455">
+retranslateUi(PluginGame5GraphDialog : QDialog)</text>
<polyline fill="none" points="991,405 1056,405" stroke="#000000" stroke-width="1"/>
<polygon fill="#ffffff" points="1056,405 1044,412 1044,398" stroke="#ffffff" stroke-width="1"/>
<polygon fill="none" points="1056,405 1044,412 1044,398" stroke="#000000" stroke-width="1"/>
<polyline fill="none" points="1104,484 1104,517" stroke="#000000" stroke-width="1"/>
<line fill="#000000" stroke="#000000" stroke-width="1" x1="1097" x2="1104" y1="505" y2="517"/>
<line fill="#000000" stroke="#000000" stroke-width="1" x1="1111" x2="1104" y1="505" y2="517"/>
<text font-family="Dialog" font-size="12" x="1120" y="505">
 </text>
<polyline fill="none" points="944,613 944,583" stroke="#000000" stroke-width="1"/>
<polygon fill="#ffffff" points="944,583 951,595 937,595" stroke="#ffffff" stroke-width="1"/>
<polygon fill="none" points="944,583 951,595 937,595" stroke="#000000" stroke-width="1"/>
<rect fill="#ffffff" height="67" stroke="#ffffff" stroke-width="1" width="120" x="736" y="517"/>
<rect fill="none" height="67" stroke="#000000" stroke-width="1" width="120" x="736" y="517"/>
<text font-family="Dialog" font-size="12" x="741" y="531">
+ QRegExpValidator</text>
<rect fill="#000000" height="1" stroke="#000000" stroke-width="1" width="120" x="736" y="541"/>
<rect fill="#000000" height="1" stroke="#000000" stroke-width="1" width="120" x="736" y="562"/>
<polyline fill="none" points="800,484 800,517" stroke="#000000" stroke-width="1"/>
<line fill="#000000" stroke="#000000" stroke-width="1" x1="793" x2="800" y1="505" y2="517"/>
<line fill="#000000" stroke="#000000" stroke-width="1" x1="807" x2="800" y1="505" y2="517"/>
<text font-family="Dialog" font-size="12" x="719" y="466">
 </text>
<polyline fill="none" points="648,484 648,517" stroke="#000000" stroke-width="1"/>
<line fill="#000000" stroke="#000000" stroke-width="1" x1="641" x2="648" y1="505" y2="517"/>
<line fill="#000000" stroke="#000000" stroke-width="1" x1="655" x2="648" y1="505" y2="517"/>
<text font-family="Dialog" font-size="12" x="664" y="505">
 </text>
<rect fill="#ffffff" height="160" stroke="#ffffff" stroke-width="1" width="218" x="1432" y="901"/>
<rect fill="none" height="160" stroke="#000000" stroke-width="1" width="218" x="1432" y="901"/>
<text font-family="Dialog" font-size="12" x="1484" y="915">
+ CheckableLineEdit</text>
<rect fill="#000000" height="1" stroke="#000000" stroke-width="1" width="218" x="1432" y="925"/>
<text font-family="Dialog" font-size="12" x="1436" y="940">
-checkBox : QCheckBox</text>
<text font-family="Dialog" font-size="12" x="1436" y="957">
-lineEdit : QLineEdit</text>
<text font-family="Dialog" font-size="12" x="1436" y="974">
-defaultText : QString</text>
<rect fill="#000000" height="1" stroke="#000000" stroke-width="1" width="218" x="1432" y="984"/>
<text font-family="Dialog" font-size="12" x="1436" y="999">
+CheckableLineEdit(parent : QWidget)</text>
<text font-family="Dialog" font-size="12" x="1436" y="1016">
+getCheckBox() : QCheckBox</text>
<text font-family="Dialog" font-size="12" x="1436" y="1033">
+getLineEdit() : QLineEdit</text>
<text font-family="Dialog" font-size="12" x="1436" y="1050">
-setLineEditState(state : int)</text>
<polyline fill="none" points="1552,901 1552,645 1527,645" stroke="#000000" stroke-width="1"/>
<polygon fill="#ffffff" points="1527,645 1539,638 1539,652" stroke="#ffffff" stroke-width="1"/>
<polygon fill="none" points="1527,645 1539,638 1539,652" stroke="#000000" stroke-width="1"/>
<polyline fill="none" points="1488,901 1488,872" stroke="#000000" stroke-width="1"/>
<line fill="#000000" stroke="#000000" stroke-width="1" x1="1495" x2="1488" y1="884" y2="872"/>
<line fill="#000000" stroke="#000000" stroke-width="1" x1="1481" x2="1488" y1="884" y2="872"/>
<text font-family="Dialog" font-size="12" x="1411" y="892">
 </text>
<polyline fill="none" points="1640,901 1640,557 1407,557" stroke="#000000" stroke-width="1"/>
<line fill="#000000" stroke="#000000" stroke-width="1" x1="1419" x2="1407" y1="550" y2="557"/>
<line fill="#000000" stroke="#000000" stroke-width="1" x1="1419" x2="1407" y1="564" y2="557"/>
<text font-family="Dialog" font-size="12" x="1655" y="604">
 </text>
<polyline fill="none" points="880,613 880,484" stroke="#000000" stroke-width="1"/>
<line fill="#000000" stroke="#000000" stroke-width="1" x1="887" x2="880" y1="496" y2="484"/>
<line fill="#000000" stroke="#000000" stroke-width="1" x1="873" x2="880" y1="496" y2="484"/>
<text font-family="Dialog" font-size="12" x="802" y="554">
 </text>
<polyline fill="none" points="632,613 632,583" stroke="#000000" stroke-width="1"/>
<line fill="#000000" stroke="#000000" stroke-width="1" x1="639" x2="632" y1="595" y2="583"/>
<line fill="#000000" stroke="#000000" stroke-width="1" x1="625" x2="632" y1="595" y2="583"/>
<text font-family="Dialog" font-size="12" x="554" y="603">
 </text>
<polyline fill="none" points="1407,965 1424,965 1432,965" stroke="#000000" stroke-width="1"/>
<line fill="#000000" stroke="#000000" stroke-width="1" x1="1420" x2="1432" y1="972" y2="965"/>
<line fill="#000000" stroke="#000000" stroke-width="1" x1="1420" x2="1432" y1="958" y2="965"/>
<text font-family="Dialog" font-size="12" x="1388" y="945">
 </text>
<polyline fill="none" points="1360,484 1360,501 1360,517" stroke="#000000" stroke-width="1"/>
<line fill="#000000" stroke="#000000" stroke-width="1" x1="1353" x2="1360" y1="505" y2="517"/>
<line fill="#000000" stroke="#000000" stroke-width="1" x1="1367" x2="1360" y1="505" y2="517"/>
<text font-family="Dialog" font-size="12" x="1376" y="505">
 </text>
</svg>
