<?xml version="1.0" encoding="utf-8" ?>
<!DOCTYPE svg PUBLIC "-//W3C//DTD SVG 1.1//EN" "http://www.w3.org/Graphics/SVG/1.1/DTD/svg11.dtd">
<svg height="1189" version="1.1" width="1836" xmlns="http://www.w3.org/2000/svg">
<rect fill="#ffffff" height="344" stroke="#ffffff" stroke-width="1" width="704" x="446" y="494"/>
<rect fill="none" height="344" stroke="#000000" stroke-width="1" width="704" x="446" y="494"/>
<text font-family="Dialog" font-size="12" x="720" y="508">
+ PluginGame5GraphDialog</text>
<rect fill="#000000" height="1" stroke="#000000" stroke-width="1" width="704" x="446" y="517"/>
<text font-family="Dialog" font-size="12" x="450" y="532">
-m_traceTimeStamp : QString</text>
<text font-family="Dialog" font-size="12" x="450" y="548">
-m_clickedNode : GraphNode</text>
<text font-family="Dialog" font-size="12" x="450" y="564">
-m_nodeWidth : int</text>
<text font-family="Dialog" font-size="12" x="450" y="580">
-m_nodeHeight : int</text>
<rect fill="#000000" height="1" stroke="#000000" stroke-width="1" width="704" x="446" y="589"/>
<text font-family="Dialog" font-size="12" x="450" y="604">
+PluginGame5GraphDialog(parent : QWidget*)</text>
<text font-family="Dialog" font-size="12" x="450" y="620">
+~PluginGame5GraphDialog()</text>
<text font-family="Dialog" font-size="12" x="450" y="636">
+updateGraph(startBoardState : std::vector&lt;int&gt;)</text>
<text font-family="Dialog" font-size="12" x="450" y="652">
+onPlgnAction(boardState : std::vector&lt;int&gt;)</text>
<text font-family="Dialog" font-size="12" x="450" y="668">
+emitShowNodeInfoDlg()</text>
<text font-family="Dialog" font-size="12" x="450" y="684">
+updateNodeInfoDlg(node : GraphNode)</text>
<text font-family="Dialog" font-size="12" x="450" y="700">
+showNodeInfoDlg()</text>
<text font-family="Dialog" font-size="12" x="450" y="716">
-getSolutionNodes() : std::vector&lt;int&gt;</text>
<text font-family="Dialog" font-size="12" x="450" y="732">
-updateCheckedNode(node : GraphNode)</text>
<text font-family="Dialog" font-size="12" x="450" y="748">
-getTraceTimeStamp() : QString</text>
<text font-family="Dialog" font-size="12" x="450" y="764">
-getTraceFile() : QString</text>
<text font-family="Dialog" font-size="12" x="450" y="780">
-parseTrace() : std::vector&lt;GraphNodeInfo&gt;</text>
<text font-family="Dialog" font-size="12" x="450" y="796">
-generateGraphNodes(parsingResult : std::vector&lt;GraphNodeInfo&gt;) :  std::vector&lt;std::vector&lt;GraphNode&gt;&gt;</text>
<text font-family="Dialog" font-size="12" x="450" y="812">
-drawGraph(graph :  std::vector&lt;std::vector&lt;GraphNode&gt;&gt;)</text>
<text font-family="Dialog" font-size="12" x="450" y="828">
-getGraphInfo() : GraphInfo</text>
<rect fill="#ffffff" height="120" stroke="#ffffff" stroke-width="1" width="344" x="1198" y="494"/>
<rect fill="none" height="120" stroke="#000000" stroke-width="1" width="344" x="1198" y="494"/>
<text font-family="Dialog" font-size="12" x="1282" y="508">
+ Ui_PluginGame5GraphDialog</text>
<rect fill="#000000" height="1" stroke="#000000" stroke-width="1" width="344" x="1198" y="517"/>
<text font-family="Dialog" font-size="12" x="1202" y="532">
+graphWidget : GraphWidget</text>
<rect fill="#000000" height="1" stroke="#000000" stroke-width="1" width="344" x="1198" y="557"/>
<text font-family="Dialog" font-size="12" x="1202" y="572">
+setupUi(PluginGame5GraphDialog : QDialog)</text>
<text font-family="Dialog" font-size="12" x="1202" y="588">
+retranslateUi(PluginGame5GraphDialog : QDialog)</text>
<rect fill="#ffffff" height="120" stroke="#ffffff" stroke-width="1" width="112" x="1044" y="866"/>
<rect fill="none" height="120" stroke="#000000" stroke-width="1" width="112" x="1044" y="866"/>
<text font-family="Dialog" font-size="12" x="1072" y="880">
+ QDialog</text>
<rect fill="#000000" height="1" stroke="#000000" stroke-width="1" width="112" x="1044" y="889"/>
<rect fill="#000000" height="1" stroke="#000000" stroke-width="1" width="112" x="1044" y="937"/>
<polyline fill="none" points="1102,837 1102,866" stroke="#000000" stroke-width="1"/>
<polygon fill="#ffffff" points="1102,866 1095,854 1109,854" stroke="#ffffff" stroke-width="1"/>
<polygon fill="none" points="1102,866 1095,854 1109,854" stroke="#000000" stroke-width="1"/>
<polyline fill="none" points="1149,550 1198,550" stroke="#000000" stroke-width="1"/>
<polygon fill="#ffffff" points="1198,550 1186,557 1186,543" stroke="#ffffff" stroke-width="1"/>
<polygon fill="none" points="1198,550 1186,557 1186,543" stroke="#000000" stroke-width="1"/>
<rect fill="#ffffff" height="67" stroke="#ffffff" stroke-width="1" width="96" x="318" y="14"/>
<rect fill="none" height="67" stroke="#000000" stroke-width="1" width="96" x="318" y="14"/>
<text font-family="Dialog" font-size="12" x="339" y="28">
+ QObject</text>
<rect fill="#000000" height="1" stroke="#000000" stroke-width="1" width="96" x="318" y="38"/>
<rect fill="#000000" height="1" stroke="#000000" stroke-width="1" width="96" x="318" y="59"/>
<line fill="#000000" stroke="#000000" stroke-width="1" x1="446" x2="446" y1="494" y2="490"/>
<line fill="#000000" stroke="#000000" stroke-width="1" x1="446" x2="445" y1="485" y2="480"/>
<line fill="#000000" stroke="#000000" stroke-width="1" x1="445" x2="445" y1="475" y2="470"/>
<line fill="#000000" stroke="#000000" stroke-width="1" x1="444" x2="444" y1="465" y2="460"/>
<line fill="#000000" stroke="#000000" stroke-width="1" x1="443" x2="443" y1="455" y2="450"/>
<line fill="#000000" stroke="#000000" stroke-width="1" x1="443" x2="442" y1="445" y2="440"/>
<line fill="#000000" stroke="#000000" stroke-width="1" x1="442" x2="441" y1="435" y2="430"/>
<line fill="#000000" stroke="#000000" stroke-width="1" x1="441" x2="441" y1="425" y2="420"/>
<line fill="#000000" stroke="#000000" stroke-width="1" x1="440" x2="440" y1="415" y2="410"/>
<line fill="#000000" stroke="#000000" stroke-width="1" x1="439" x2="439" y1="405" y2="400"/>
<line fill="#000000" stroke="#000000" stroke-width="1" x1="439" x2="438" y1="395" y2="390"/>
<line fill="#000000" stroke="#000000" stroke-width="1" x1="438" x2="437" y1="385" y2="380"/>
<line fill="#000000" stroke="#000000" stroke-width="1" x1="437" x2="437" y1="375" y2="370"/>
<line fill="#000000" stroke="#000000" stroke-width="1" x1="436" x2="436" y1="365" y2="360"/>
<line fill="#000000" stroke="#000000" stroke-width="1" x1="435" x2="435" y1="355" y2="350"/>
<line fill="#000000" stroke="#000000" stroke-width="1" x1="435" x2="434" y1="345" y2="340"/>
<line fill="#000000" stroke="#000000" stroke-width="1" x1="434" x2="433" y1="335" y2="330"/>
<line fill="#000000" stroke="#000000" stroke-width="1" x1="433" x2="433" y1="325" y2="320"/>
<line fill="#000000" stroke="#000000" stroke-width="1" x1="432" x2="432" y1="315" y2="310"/>
<line fill="#000000" stroke="#000000" stroke-width="1" x1="431" x2="431" y1="305" y2="300"/>
<line fill="#000000" stroke="#000000" stroke-width="1" x1="431" x2="430" y1="295" y2="290"/>
<line fill="#000000" stroke="#000000" stroke-width="1" x1="430" x2="429" y1="285" y2="280"/>
<line fill="#000000" stroke="#000000" stroke-width="1" x1="429" x2="429" y1="275" y2="270"/>
<line fill="#000000" stroke="#000000" stroke-width="1" x1="428" x2="428" y1="265" y2="260"/>
<line fill="#000000" stroke="#000000" stroke-width="1" x1="427" x2="427" y1="255" y2="250"/>
<line fill="#000000" stroke="#000000" stroke-width="1" x1="427" x2="426" y1="245" y2="240"/>
<line fill="#000000" stroke="#000000" stroke-width="1" x1="426" x2="425" y1="235" y2="230"/>
<line fill="#000000" stroke="#000000" stroke-width="1" x1="425" x2="425" y1="225" y2="220"/>
<line fill="#000000" stroke="#000000" stroke-width="1" x1="424" x2="424" y1="215" y2="210"/>
<line fill="#000000" stroke="#000000" stroke-width="1" x1="423" x2="423" y1="205" y2="200"/>
<line fill="#000000" stroke="#000000" stroke-width="1" x1="423" x2="422" y1="195" y2="190"/>
<line fill="#000000" stroke="#000000" stroke-width="1" x1="422" x2="421" y1="185" y2="180"/>
<line fill="#000000" stroke="#000000" stroke-width="1" x1="421" x2="421" y1="175" y2="170"/>
<line fill="#000000" stroke="#000000" stroke-width="1" x1="420" x2="420" y1="165" y2="160"/>
<line fill="#000000" stroke="#000000" stroke-width="1" x1="419" x2="419" y1="155" y2="150"/>
<line fill="#000000" stroke="#000000" stroke-width="1" x1="419" x2="418" y1="145" y2="140"/>
<line fill="#000000" stroke="#000000" stroke-width="1" x1="418" x2="417" y1="135" y2="130"/>
<line fill="#000000" stroke="#000000" stroke-width="1" x1="417" x2="417" y1="125" y2="120"/>
<line fill="#000000" stroke="#000000" stroke-width="1" x1="416" x2="416" y1="115" y2="110"/>
<line fill="#000000" stroke="#000000" stroke-width="1" x1="415" x2="415" y1="105" y2="100"/>
<line fill="#000000" stroke="#000000" stroke-width="1" x1="415" x2="414" y1="95" y2="90"/>
<line fill="#000000" stroke="#000000" stroke-width="1" x1="414" x2="413" y1="85" y2="80"/>
<polygon fill="#ffffff" points="413,80 420,91 406,92" stroke="#ffffff" stroke-width="1"/>
<polygon fill="none" points="413,80 420,91 406,92" stroke="#000000" stroke-width="1"/>
<text font-family="Dialog" font-size="12" x="445" y="305">
&lt;&lt;realize&gt;&gt;</text>
<rect fill="#ffffff" height="85" stroke="#ffffff" stroke-width="1" width="208" x="206" y="494"/>
<rect fill="none" height="85" stroke="#000000" stroke-width="1" width="208" x="206" y="494"/>
<text font-family="Dialog" font-size="12" x="267" y="508">
+ UnbuiltRange</text>
<rect fill="#000000" height="1" stroke="#000000" stroke-width="1" width="208" x="206" y="517"/>
<text font-family="Dialog" font-size="12" x="210" y="532">
+firstNode : int</text>
<text font-family="Dialog" font-size="12" x="210" y="548">
+range : int</text>
<rect fill="#000000" height="1" stroke="#000000" stroke-width="1" width="208" x="206" y="557"/>
<rect fill="#ffffff" height="120" stroke="#ffffff" stroke-width="1" width="392" x="446" y="866"/>
<rect fill="none" height="120" stroke="#000000" stroke-width="1" width="392" x="446" y="866"/>
<text font-family="Dialog" font-size="12" x="610" y="880">
+ GraphInfo</text>
<rect fill="#000000" height="1" stroke="#000000" stroke-width="1" width="392" x="446" y="889"/>
<text font-family="Dialog" font-size="12" x="450" y="904">
-solutionCost : QString</text>
<text font-family="Dialog" font-size="12" x="450" y="920">
+numberOfOpenNodes : QString</text>
<text font-family="Dialog" font-size="12" x="450" y="936">
+totalNumberOfNodes : QString</text>
<rect fill="#000000" height="1" stroke="#000000" stroke-width="1" width="392" x="446" y="945"/>
<text font-family="Dialog" font-size="12" x="450" y="960">
+GraphInfo(solutionCost : QString)</text>
<text font-family="Dialog" font-size="12" x="450" y="976">
+numberOfOpenNodes(arg2 : QString,totalNumberOfNodes : QString)</text>
<rect fill="#ffffff" height="71" stroke="#ffffff" stroke-width="1" width="152" x="806" y="174"/>
<rect fill="none" height="71" stroke="#000000" stroke-width="1" width="152" x="806" y="174"/>
<text font-family="Dialog" font-size="12" x="845" y="188">
+ GraphNode</text>
<rect fill="#000000" height="1" stroke="#000000" stroke-width="1" width="152" x="806" y="198"/>
<rect fill="#000000" height="1" stroke="#000000" stroke-width="1" width="152" x="806" y="221"/>
<polyline fill="none" points="942,494 942,278 910,278 910,244" stroke="#000000" stroke-width="1"/>
<line fill="#000000" stroke="#000000" stroke-width="1" x1="917" x2="910" y1="256" y2="244"/>
<line fill="#000000" stroke="#000000" stroke-width="1" x1="903" x2="910" y1="256" y2="244"/>
<text font-family="Dialog" font-size="12" x="864" y="377">
 </text>
<rect fill="#ffffff" height="67" stroke="#ffffff" stroke-width="1" width="152" x="446" y="382"/>
<rect fill="none" height="67" stroke="#000000" stroke-width="1" width="152" x="446" y="382"/>
<text font-family="Dialog" font-size="12" x="462" y="396">
+ vector&lt;GraphNode&gt;</text>
<rect fill="#000000" height="1" stroke="#000000" stroke-width="1" width="152" x="446" y="406"/>
<rect fill="#000000" height="1" stroke="#000000" stroke-width="1" width="152" x="446" y="427"/>
<polyline fill="none" points="542,382 542,222 806,222" stroke="#000000" stroke-width="1"/>
<polygon fill="#ffffff" points="542,382 537,372 542,362 547,372" stroke="#ffffff" stroke-width="1"/>
<polygon fill="none" points="542,382 537,372 542,362 547,372" stroke="#000000" stroke-width="1"/>
<text font-family="Dialog" font-size="12" x="570" y="168">
 </text>
<text font-family="Dialog" font-size="12" x="516" y="365">
0..*</text>
<rect fill="#ffffff" height="72" stroke="#ffffff" stroke-width="1" width="152" x="1374" y="286"/>
<rect fill="none" height="72" stroke="#000000" stroke-width="1" width="152" x="1374" y="286"/>
<text font-family="Dialog" font-size="12" x="1409" y="300">
+ GraphWidget</text>
<rect fill="#000000" height="1" stroke="#000000" stroke-width="1" width="152" x="1374" y="310"/>
<rect fill="#000000" height="1" stroke="#000000" stroke-width="1" width="152" x="1374" y="333"/>
<polyline fill="none" points="1445,494 1445,357" stroke="#000000" stroke-width="1"/>
<line fill="#000000" stroke="#000000" stroke-width="1" x1="1452" x2="1445" y1="369" y2="357"/>
<line fill="#000000" stroke="#000000" stroke-width="1" x1="1438" x2="1445" y1="369" y2="357"/>
<text font-family="Dialog" font-size="12" x="1367" y="431">
 </text>
<rect fill="#ffffff" height="417" stroke="#ffffff" stroke-width="1" width="349" x="1196" y="758"/>
<rect fill="none" height="417" stroke="#000000" stroke-width="1" width="349" x="1196" y="758"/>
<text font-family="Dialog" font-size="12" x="1258" y="772">
+ UI_PluginGame5GraphNodeInfoDialog</text>
<rect fill="#000000" height="1" stroke="#000000" stroke-width="1" width="349" x="1196" y="781"/>
<text font-family="Dialog" font-size="12" x="1200" y="796">
+labelRelevantTile : QLabel</text>
<text font-family="Dialog" font-size="12" x="1200" y="812">
+labelMoveDirection : QLabel</text>
<text font-family="Dialog" font-size="12" x="1200" y="828">
+labelPathCostOut : QLabel</text>
<text font-family="Dialog" font-size="12" x="1200" y="844">
+labelSolutionOut : QLabel</text>
<text font-family="Dialog" font-size="12" x="1200" y="860">
+labelRestPathCost : QLabel</text>
<text font-family="Dialog" font-size="12" x="1200" y="876">
+labelNodeNum : QLabel</text>
<text font-family="Dialog" font-size="12" x="1200" y="892">
+labelRestPathCostOut : QLabel</text>
<text font-family="Dialog" font-size="12" x="1200" y="908">
+labelRelevantTileOut : QLabel</text>
<text font-family="Dialog" font-size="12" x="1200" y="924">
+labelMoveDirectionOut : QLabel</text>
<text font-family="Dialog" font-size="12" x="1200" y="940">
+labelMoveCostOut : QLabel</text>
<text font-family="Dialog" font-size="12" x="1200" y="956">
+labelNodeNumOut : QLabel</text>
<text font-family="Dialog" font-size="12" x="1200" y="972">
+labelParentNodeNumOut : QLabel</text>
<text font-family="Dialog" font-size="12" x="1200" y="988">
+labelParentNodeNum : QLabel</text>
<text font-family="Dialog" font-size="12" x="1200" y="1004">
+labelPathCost : QLabel</text>
<text font-family="Dialog" font-size="12" x="1200" y="1020">
+labelMoveCost : QLabel</text>
<text font-family="Dialog" font-size="12" x="1200" y="1036">
+labelSolution : QLabel</text>
<text font-family="Dialog" font-size="12" x="1200" y="1052">
+buttonNext : QPushButton</text>
<text font-family="Dialog" font-size="12" x="1200" y="1068">
+buttonPrev : QPushButton</text>
<text font-family="Dialog" font-size="12" x="1200" y="1084">
+gameBoard : Board</text>
<rect fill="#000000" height="1" stroke="#000000" stroke-width="1" width="349" x="1196" y="1113"/>
<text font-family="Dialog" font-size="12" x="1200" y="1128">
+setupUi(PluginGame5GraphNodeInfoDialog : QDialog)</text>
<text font-family="Dialog" font-size="12" x="1200" y="1144">
+retranslateUi(PluginGame5GraphNodeInfoDialog : QDialog)</text>
<rect fill="#ffffff" height="71" stroke="#ffffff" stroke-width="1" width="152" x="262" y="606"/>
<rect fill="none" height="71" stroke="#000000" stroke-width="1" width="152" x="262" y="606"/>
<text font-family="Dialog" font-size="12" x="272" y="620">
+ rdo::gui::model::Model</text>
<rect fill="#000000" height="1" stroke="#000000" stroke-width="1" width="152" x="262" y="630"/>
<rect fill="#000000" height="1" stroke="#000000" stroke-width="1" width="152" x="262" y="653"/>
<polyline fill="none" points="446,646 413,646" stroke="#000000" stroke-width="1"/>
<line fill="#000000" stroke="#000000" stroke-width="1" x1="425" x2="413" y1="639" y2="646"/>
<line fill="#000000" stroke="#000000" stroke-width="1" x1="425" x2="413" y1="653" y2="646"/>
<text font-family="Dialog" font-size="12" x="399" y="626">
 </text>
<rect fill="#ffffff" height="68" stroke="#ffffff" stroke-width="1" width="152" x="262" y="702"/>
<rect fill="none" height="68" stroke="#000000" stroke-width="1" width="152" x="262" y="702"/>
<text font-family="Dialog" font-size="12" x="318" y="716">
+ QFile</text>
<rect fill="#000000" height="1" stroke="#000000" stroke-width="1" width="152" x="262" y="726"/>
<rect fill="#000000" height="1" stroke="#000000" stroke-width="1" width="152" x="262" y="747"/>
<polyline fill="none" points="446,734 413,734" stroke="#000000" stroke-width="1"/>
<line fill="#000000" stroke="#000000" stroke-width="1" x1="425" x2="413" y1="727" y2="734"/>
<line fill="#000000" stroke="#000000" stroke-width="1" x1="425" x2="413" y1="741" y2="734"/>
<text font-family="Dialog" font-size="12" x="399" y="714">
 </text>
<rect fill="#ffffff" height="120" stroke="#ffffff" stroke-width="1" width="144" x="862" y="866"/>
<rect fill="none" height="120" stroke="#000000" stroke-width="1" width="144" x="862" y="866"/>
<text font-family="Dialog" font-size="12" x="908" y="880">
+ QString</text>
<rect fill="#000000" height="1" stroke="#000000" stroke-width="1" width="144" x="862" y="889"/>
<rect fill="#000000" height="1" stroke="#000000" stroke-width="1" width="144" x="862" y="937"/>
<rect fill="#ffffff" height="67" stroke="#ffffff" stroke-width="1" width="152" x="262" y="798"/>
<rect fill="none" height="67" stroke="#000000" stroke-width="1" width="152" x="262" y="798"/>
<text font-family="Dialog" font-size="12" x="307" y="812">
+ QRegExp</text>
<rect fill="#000000" height="1" stroke="#000000" stroke-width="1" width="152" x="262" y="822"/>
<rect fill="#000000" height="1" stroke="#000000" stroke-width="1" width="152" x="262" y="843"/>
<polyline fill="none" points="446,837 413,837" stroke="#000000" stroke-width="1"/>
<line fill="#000000" stroke="#000000" stroke-width="1" x1="425" x2="413" y1="830" y2="837"/>
<line fill="#000000" stroke="#000000" stroke-width="1" x1="425" x2="413" y1="844" y2="837"/>
<text font-family="Dialog" font-size="12" x="399" y="817">
 </text>
<rect fill="#ffffff" height="152" stroke="#ffffff" stroke-width="1" width="709" x="446" y="1023"/>
<rect fill="none" height="152" stroke="#000000" stroke-width="1" width="709" x="446" y="1023"/>
<text font-family="Dialog" font-size="12" x="697" y="1037">
+ PluginGame5GraphNodeInfoDialog</text>
<rect fill="#000000" height="1" stroke="#000000" stroke-width="1" width="709" x="446" y="1046"/>
<text font-family="Dialog" font-size="12" x="450" y="1061">
-m_pNode : GraphNode</text>
<rect fill="#000000" height="1" stroke="#000000" stroke-width="1" width="709" x="446" y="1070"/>
<text font-family="Dialog" font-size="12" x="450" y="1085">
+PluginGame5GraphNodeInfoDialog(parent : QWidget*)</text>
<text font-family="Dialog" font-size="12" x="450" y="1101">
+~PluginGame5GraphNodeInfoDialog()</text>
<text font-family="Dialog" font-size="12" x="450" y="1117">
+updateDlg(node : GraphNode)</text>
<text font-family="Dialog" font-size="12" x="450" y="1133">
+updateCheckedNode(node : GraphNode)</text>
<text font-family="Dialog" font-size="12" x="450" y="1149">
-nextNode()</text>
<text font-family="Dialog" font-size="12" x="450" y="1165">
-prevNode()</text>
<polyline fill="none" points="1154,1070 1196,1070" stroke="#000000" stroke-width="1"/>
<polygon fill="#ffffff" points="1196,1070 1184,1077 1184,1063" stroke="#ffffff" stroke-width="1"/>
<polygon fill="none" points="1196,1070 1184,1077 1184,1063" stroke="#000000" stroke-width="1"/>
<polyline fill="none" points="1102,1023 1102,985" stroke="#000000" stroke-width="1"/>
<polygon fill="#ffffff" points="1102,985 1109,997 1095,997" stroke="#ffffff" stroke-width="1"/>
<polygon fill="none" points="1102,985 1109,997 1095,997" stroke="#000000" stroke-width="1"/>
<line fill="#000000" stroke="#000000" stroke-width="1" x1="446" x2="441" y1="1023" y2="1023"/>
<line fill="#000000" stroke="#000000" stroke-width="1" x1="436" x2="431" y1="1023" y2="1023"/>
<line fill="#000000" stroke="#000000" stroke-width="1" x1="426" x2="421" y1="1023" y2="1023"/>
<line fill="#000000" stroke="#000000" stroke-width="1" x1="416" x2="411" y1="1022" y2="1022"/>
<line fill="#000000" stroke="#000000" stroke-width="1" x1="406" x2="401" y1="1022" y2="1022"/>
<line fill="#000000" stroke="#000000" stroke-width="1" x1="396" x2="391" y1="1022" y2="1021"/>
<line fill="#000000" stroke="#000000" stroke-width="1" x1="386" x2="381" y1="1021" y2="1021"/>
<line fill="#000000" stroke="#000000" stroke-width="1" x1="376" x2="371" y1="1021" y2="1021"/>
<line fill="#000000" stroke="#000000" stroke-width="1" x1="366" x2="361" y1="1020" y2="1020"/>
<line fill="#000000" stroke="#000000" stroke-width="1" x1="356" x2="351" y1="1020" y2="1020"/>
<line fill="#000000" stroke="#000000" stroke-width="1" x1="346" x2="341" y1="1020" y2="1019"/>
<line fill="#000000" stroke="#000000" stroke-width="1" x1="336" x2="331" y1="1019" y2="1019"/>
<line fill="#000000" stroke="#000000" stroke-width="1" x1="326" x2="321" y1="1019" y2="1019"/>
<line fill="#000000" stroke="#000000" stroke-width="1" x1="316" x2="311" y1="1018" y2="1018"/>
<line fill="#000000" stroke="#000000" stroke-width="1" x1="306" x2="301" y1="1018" y2="1018"/>
<line fill="#000000" stroke="#000000" stroke-width="1" x1="296" x2="291" y1="1018" y2="1017"/>
<line fill="#000000" stroke="#000000" stroke-width="1" x1="286" x2="281" y1="1017" y2="1017"/>
<line fill="#000000" stroke="#000000" stroke-width="1" x1="276" x2="271" y1="1017" y2="1017"/>
<line fill="#000000" stroke="#000000" stroke-width="1" x1="266" x2="261" y1="1016" y2="1016"/>
<line fill="#000000" stroke="#000000" stroke-width="1" x1="256" x2="251" y1="1016" y2="1016"/>
<line fill="#000000" stroke="#000000" stroke-width="1" x1="246" x2="241" y1="1016" y2="1015"/>
<line fill="#000000" stroke="#000000" stroke-width="1" x1="236" x2="231" y1="1015" y2="1015"/>
<line fill="#000000" stroke="#000000" stroke-width="1" x1="226" x2="221" y1="1015" y2="1015"/>
<line fill="#000000" stroke="#000000" stroke-width="1" x1="216" x2="211" y1="1014" y2="1014"/>
<line fill="#000000" stroke="#000000" stroke-width="1" x1="206" x2="201" y1="1014" y2="1014"/>
<line fill="#000000" stroke="#000000" stroke-width="1" x1="196" x2="191" y1="1014" y2="1013"/>
<line fill="#000000" stroke="#000000" stroke-width="1" x1="186" x2="181" y1="1013" y2="1013"/>
<line fill="#000000" stroke="#000000" stroke-width="1" x1="176" x2="171" y1="1013" y2="1013"/>
<line fill="#000000" stroke="#000000" stroke-width="1" x1="166" x2="161" y1="1012" y2="1012"/>
<line fill="#000000" stroke="#000000" stroke-width="1" x1="156" x2="151" y1="1012" y2="1012"/>
<line fill="#000000" stroke="#000000" stroke-width="1" x1="146" x2="141" y1="1012" y2="1011"/>
<line fill="#000000" stroke="#000000" stroke-width="1" x1="136" x2="131" y1="1011" y2="1011"/>
<line fill="#000000" stroke="#000000" stroke-width="1" x1="126" x2="121" y1="1011" y2="1011"/>
<line fill="#000000" stroke="#000000" stroke-width="1" x1="116" x2="111" y1="1011" y2="1010"/>
<line fill="#000000" stroke="#000000" stroke-width="1" x1="106" x2="101" y1="1010" y2="1010"/>
<line fill="#000000" stroke="#000000" stroke-width="1" x1="96" x2="91" y1="1010" y2="1010"/>
<line fill="#000000" stroke="#000000" stroke-width="1" x1="86" x2="81" y1="1009" y2="1009"/>
<line fill="#000000" stroke="#000000" stroke-width="1" x1="76" x2="71" y1="1009" y2="1009"/>
<line fill="#000000" stroke="#000000" stroke-width="1" x1="66" x2="61" y1="1009" y2="1008"/>
<line fill="#000000" stroke="#000000" stroke-width="1" x1="56" x2="51" y1="1008" y2="1008"/>
<line fill="#000000" stroke="#000000" stroke-width="1" x1="46" x2="41" y1="1008" y2="1008"/>
<line fill="#000000" stroke="#000000" stroke-width="1" x1="36" x2="31" y1="1007" y2="1007"/>
<line fill="#000000" stroke="#000000" stroke-width="1" x1="26" x2="21" y1="1007" y2="1007"/>
<line fill="#000000" stroke="#000000" stroke-width="1" x1="16" x2="14" y1="1007" y2="1006"/>
<line fill="#000000" stroke="#000000" stroke-width="1" x1="14" x2="15" y1="1006" y2="1002"/>
<line fill="#000000" stroke="#000000" stroke-width="1" x1="17" x2="18" y1="997" y2="992"/>
<line fill="#000000" stroke="#000000" stroke-width="1" x1="20" x2="21" y1="987" y2="983"/>
<line fill="#000000" stroke="#000000" stroke-width="1" x1="23" x2="24" y1="978" y2="973"/>
<line fill="#000000" stroke="#000000" stroke-width="1" x1="26" x2="28" y1="968" y2="964"/>
<line fill="#000000" stroke="#000000" stroke-width="1" x1="29" x2="31" y1="959" y2="954"/>
<line fill="#000000" stroke="#000000" stroke-width="1" x1="32" x2="34" y1="949" y2="945"/>
<line fill="#000000" stroke="#000000" stroke-width="1" x1="35" x2="37" y1="940" y2="935"/>
<line fill="#000000" stroke="#000000" stroke-width="1" x1="38" x2="40" y1="930" y2="926"/>
<line fill="#000000" stroke="#000000" stroke-width="1" x1="42" x2="43" y1="921" y2="916"/>
<line fill="#000000" stroke="#000000" stroke-width="1" x1="45" x2="46" y1="911" y2="907"/>
<line fill="#000000" stroke="#000000" stroke-width="1" x1="48" x2="49" y1="902" y2="897"/>
<line fill="#000000" stroke="#000000" stroke-width="1" x1="51" x2="53" y1="892" y2="888"/>
<line fill="#000000" stroke="#000000" stroke-width="1" x1="54" x2="56" y1="883" y2="878"/>
<line fill="#000000" stroke="#000000" stroke-width="1" x1="57" x2="59" y1="873" y2="869"/>
<line fill="#000000" stroke="#000000" stroke-width="1" x1="60" x2="62" y1="864" y2="859"/>
<line fill="#000000" stroke="#000000" stroke-width="1" x1="63" x2="65" y1="854" y2="850"/>
<line fill="#000000" stroke="#000000" stroke-width="1" x1="67" x2="68" y1="845" y2="840"/>
<line fill="#000000" stroke="#000000" stroke-width="1" x1="70" x2="71" y1="835" y2="831"/>
<line fill="#000000" stroke="#000000" stroke-width="1" x1="73" x2="74" y1="826" y2="821"/>
<line fill="#000000" stroke="#000000" stroke-width="1" x1="76" x2="77" y1="816" y2="812"/>
<line fill="#000000" stroke="#000000" stroke-width="1" x1="79" x2="81" y1="807" y2="802"/>
<line fill="#000000" stroke="#000000" stroke-width="1" x1="82" x2="84" y1="797" y2="793"/>
<line fill="#000000" stroke="#000000" stroke-width="1" x1="85" x2="87" y1="788" y2="783"/>
<line fill="#000000" stroke="#000000" stroke-width="1" x1="88" x2="90" y1="778" y2="774"/>
<line fill="#000000" stroke="#000000" stroke-width="1" x1="92" x2="93" y1="769" y2="764"/>
<line fill="#000000" stroke="#000000" stroke-width="1" x1="95" x2="96" y1="759" y2="755"/>
<line fill="#000000" stroke="#000000" stroke-width="1" x1="98" x2="99" y1="750" y2="745"/>
<line fill="#000000" stroke="#000000" stroke-width="1" x1="101" x2="102" y1="740" y2="736"/>
<line fill="#000000" stroke="#000000" stroke-width="1" x1="104" x2="106" y1="731" y2="726"/>
<line fill="#000000" stroke="#000000" stroke-width="1" x1="107" x2="109" y1="721" y2="717"/>
<line fill="#000000" stroke="#000000" stroke-width="1" x1="110" x2="112" y1="712" y2="707"/>
<line fill="#000000" stroke="#000000" stroke-width="1" x1="113" x2="115" y1="702" y2="698"/>
<line fill="#000000" stroke="#000000" stroke-width="1" x1="116" x2="118" y1="693" y2="688"/>
<line fill="#000000" stroke="#000000" stroke-width="1" x1="120" x2="121" y1="683" y2="679"/>
<line fill="#000000" stroke="#000000" stroke-width="1" x1="123" x2="124" y1="674" y2="669"/>
<line fill="#000000" stroke="#000000" stroke-width="1" x1="126" x2="127" y1="664" y2="659"/>
<line fill="#000000" stroke="#000000" stroke-width="1" x1="129" x2="131" y1="655" y2="650"/>
<line fill="#000000" stroke="#000000" stroke-width="1" x1="132" x2="134" y1="645" y2="640"/>
<line fill="#000000" stroke="#000000" stroke-width="1" x1="135" x2="137" y1="636" y2="631"/>
<line fill="#000000" stroke="#000000" stroke-width="1" x1="138" x2="140" y1="626" y2="621"/>
<line fill="#000000" stroke="#000000" stroke-width="1" x1="141" x2="143" y1="617" y2="612"/>
<line fill="#000000" stroke="#000000" stroke-width="1" x1="145" x2="146" y1="607" y2="602"/>
<line fill="#000000" stroke="#000000" stroke-width="1" x1="148" x2="149" y1="598" y2="593"/>
<line fill="#000000" stroke="#000000" stroke-width="1" x1="151" x2="152" y1="588" y2="583"/>
<line fill="#000000" stroke="#000000" stroke-width="1" x1="154" x2="156" y1="579" y2="574"/>
<line fill="#000000" stroke="#000000" stroke-width="1" x1="157" x2="159" y1="569" y2="564"/>
<line fill="#000000" stroke="#000000" stroke-width="1" x1="160" x2="162" y1="560" y2="555"/>
<line fill="#000000" stroke="#000000" stroke-width="1" x1="163" x2="165" y1="550" y2="545"/>
<line fill="#000000" stroke="#000000" stroke-width="1" x1="166" x2="168" y1="541" y2="536"/>
<line fill="#000000" stroke="#000000" stroke-width="1" x1="170" x2="171" y1="531" y2="526"/>
<line fill="#000000" stroke="#000000" stroke-width="1" x1="173" x2="174" y1="522" y2="517"/>
<line fill="#000000" stroke="#000000" stroke-width="1" x1="176" x2="177" y1="512" y2="507"/>
<line fill="#000000" stroke="#000000" stroke-width="1" x1="179" x2="180" y1="503" y2="498"/>
<line fill="#000000" stroke="#000000" stroke-width="1" x1="182" x2="184" y1="493" y2="488"/>
<line fill="#000000" stroke="#000000" stroke-width="1" x1="185" x2="187" y1="484" y2="479"/>
<line fill="#000000" stroke="#000000" stroke-width="1" x1="188" x2="190" y1="474" y2="469"/>
<line fill="#000000" stroke="#000000" stroke-width="1" x1="191" x2="193" y1="465" y2="460"/>
<line fill="#000000" stroke="#000000" stroke-width="1" x1="195" x2="196" y1="455" y2="450"/>
<line fill="#000000" stroke="#000000" stroke-width="1" x1="198" x2="199" y1="446" y2="441"/>
<line fill="#000000" stroke="#000000" stroke-width="1" x1="201" x2="202" y1="436" y2="431"/>
<line fill="#000000" stroke="#000000" stroke-width="1" x1="204" x2="205" y1="427" y2="422"/>
<line fill="#000000" stroke="#000000" stroke-width="1" x1="207" x2="209" y1="417" y2="412"/>
<line fill="#000000" stroke="#000000" stroke-width="1" x1="210" x2="212" y1="408" y2="403"/>
<line fill="#000000" stroke="#000000" stroke-width="1" x1="213" x2="215" y1="398" y2="393"/>
<line fill="#000000" stroke="#000000" stroke-width="1" x1="216" x2="218" y1="389" y2="384"/>
<line fill="#000000" stroke="#000000" stroke-width="1" x1="219" x2="221" y1="379" y2="374"/>
<line fill="#000000" stroke="#000000" stroke-width="1" x1="223" x2="224" y1="370" y2="365"/>
<line fill="#000000" stroke="#000000" stroke-width="1" x1="226" x2="227" y1="360" y2="355"/>
<line fill="#000000" stroke="#000000" stroke-width="1" x1="229" x2="230" y1="351" y2="346"/>
<line fill="#000000" stroke="#000000" stroke-width="1" x1="232" x2="234" y1="341" y2="336"/>
<line fill="#000000" stroke="#000000" stroke-width="1" x1="235" x2="237" y1="331" y2="327"/>
<line fill="#000000" stroke="#000000" stroke-width="1" x1="238" x2="240" y1="322" y2="317"/>
<line fill="#000000" stroke="#000000" stroke-width="1" x1="241" x2="243" y1="312" y2="308"/>
<line fill="#000000" stroke="#000000" stroke-width="1" x1="244" x2="246" y1="303" y2="298"/>
<line fill="#000000" stroke="#000000" stroke-width="1" x1="248" x2="249" y1="293" y2="289"/>
<line fill="#000000" stroke="#000000" stroke-width="1" x1="251" x2="252" y1="284" y2="279"/>
<line fill="#000000" stroke="#000000" stroke-width="1" x1="254" x2="255" y1="274" y2="270"/>
<line fill="#000000" stroke="#000000" stroke-width="1" x1="257" x2="259" y1="265" y2="260"/>
<line fill="#000000" stroke="#000000" stroke-width="1" x1="260" x2="262" y1="255" y2="251"/>
<line fill="#000000" stroke="#000000" stroke-width="1" x1="263" x2="265" y1="246" y2="241"/>
<line fill="#000000" stroke="#000000" stroke-width="1" x1="266" x2="268" y1="236" y2="232"/>
<line fill="#000000" stroke="#000000" stroke-width="1" x1="269" x2="271" y1="227" y2="222"/>
<line fill="#000000" stroke="#000000" stroke-width="1" x1="273" x2="274" y1="217" y2="213"/>
<line fill="#000000" stroke="#000000" stroke-width="1" x1="276" x2="277" y1="208" y2="203"/>
<line fill="#000000" stroke="#000000" stroke-width="1" x1="279" x2="280" y1="198" y2="194"/>
<line fill="#000000" stroke="#000000" stroke-width="1" x1="282" x2="283" y1="189" y2="184"/>
<line fill="#000000" stroke="#000000" stroke-width="1" x1="285" x2="287" y1="179" y2="175"/>
<line fill="#000000" stroke="#000000" stroke-width="1" x1="288" x2="290" y1="170" y2="165"/>
<line fill="#000000" stroke="#000000" stroke-width="1" x1="291" x2="293" y1="160" y2="156"/>
<line fill="#000000" stroke="#000000" stroke-width="1" x1="294" x2="296" y1="151" y2="146"/>
<line fill="#000000" stroke="#000000" stroke-width="1" x1="298" x2="299" y1="141" y2="137"/>
<line fill="#000000" stroke="#000000" stroke-width="1" x1="301" x2="302" y1="132" y2="127"/>
<line fill="#000000" stroke="#000000" stroke-width="1" x1="304" x2="305" y1="122" y2="118"/>
<line fill="#000000" stroke="#000000" stroke-width="1" x1="307" x2="308" y1="113" y2="108"/>
<line fill="#000000" stroke="#000000" stroke-width="1" x1="310" x2="312" y1="103" y2="99"/>
<line fill="#000000" stroke="#000000" stroke-width="1" x1="313" x2="315" y1="94" y2="89"/>
<line fill="#000000" stroke="#000000" stroke-width="1" x1="316" x2="318" y1="84" y2="80"/>
<polygon fill="#ffffff" points="318,80 320,93 307,89" stroke="#ffffff" stroke-width="1"/>
<polygon fill="none" points="318,80 320,93 307,89" stroke="#000000" stroke-width="1"/>
<text font-family="Dialog" font-size="12" x="115" y="773">
&lt;&lt;realize&gt;&gt;</text>
<polyline fill="none" points="1030,837 1030,1023" stroke="#000000" stroke-width="1"/>
<line fill="#000000" stroke="#000000" stroke-width="1" x1="1023" x2="1030" y1="1011" y2="1023"/>
<line fill="#000000" stroke="#000000" stroke-width="1" x1="1037" x2="1030" y1="1011" y2="1023"/>
<text font-family="Dialog" font-size="12" x="1049" y="935">
 </text>
<rect fill="#ffffff" height="68" stroke="#ffffff" stroke-width="1" width="128" x="1198" y="662"/>
<rect fill="none" height="68" stroke="#000000" stroke-width="1" width="128" x="1198" y="662"/>
<text font-family="Dialog" font-size="12" x="1237" y="676">
+ QLabel</text>
<rect fill="#000000" height="1" stroke="#000000" stroke-width="1" width="128" x="1198" y="685"/>
<rect fill="#000000" height="1" stroke="#000000" stroke-width="1" width="128" x="1198" y="707"/>
<polyline fill="none" points="1254,758 1254,729" stroke="#000000" stroke-width="1"/>
<line fill="#000000" stroke="#000000" stroke-width="1" x1="1261" x2="1254" y1="741" y2="729"/>
<line fill="#000000" stroke="#000000" stroke-width="1" x1="1247" x2="1254" y1="741" y2="729"/>
<text font-family="Dialog" font-size="12" x="1176" y="751">
 </text>
<rect fill="#ffffff" height="68" stroke="#ffffff" stroke-width="1" width="128" x="1414" y="662"/>
<rect fill="none" height="68" stroke="#000000" stroke-width="1" width="128" x="1414" y="662"/>
<text font-family="Dialog" font-size="12" x="1436" y="676">
+ QPushButton</text>
<rect fill="#000000" height="1" stroke="#000000" stroke-width="1" width="128" x="1414" y="685"/>
<rect fill="#000000" height="1" stroke="#000000" stroke-width="1" width="128" x="1414" y="707"/>
<polyline fill="none" points="1470,758 1470,729" stroke="#000000" stroke-width="1"/>
<line fill="#000000" stroke="#000000" stroke-width="1" x1="1477" x2="1470" y1="741" y2="729"/>
<line fill="#000000" stroke="#000000" stroke-width="1" x1="1463" x2="1470" y1="741" y2="729"/>
<text font-family="Dialog" font-size="12" x="1393" y="749">
 </text>
<rect fill="#ffffff" height="72" stroke="#ffffff" stroke-width="1" width="152" x="1670" y="822"/>
<rect fill="none" height="72" stroke="#000000" stroke-width="1" width="152" x="1670" y="822"/>
<text font-family="Dialog" font-size="12" x="1724" y="836">
+ Board</text>
<rect fill="#000000" height="1" stroke="#000000" stroke-width="1" width="152" x="1670" y="846"/>
<rect fill="#000000" height="1" stroke="#000000" stroke-width="1" width="152" x="1670" y="869"/>
<polyline fill="none" points="950,1023 950,985" stroke="#000000" stroke-width="1"/>
<line fill="#000000" stroke="#000000" stroke-width="1" x1="957" x2="950" y1="997" y2="985"/>
<line fill="#000000" stroke="#000000" stroke-width="1" x1="943" x2="950" y1="997" y2="985"/>
<text font-family="Dialog" font-size="12" x="873" y="1006">
 </text>
<rect fill="#ffffff" height="67" stroke="#ffffff" stroke-width="1" width="104" x="1054" y="182"/>
<rect fill="none" height="67" stroke="#000000" stroke-width="1" width="104" x="1054" y="182"/>
<text font-family="Dialog" font-size="12" x="1059" y="196">
+ GraphNodeInfo</text>
<rect fill="#000000" height="1" stroke="#000000" stroke-width="1" width="104" x="1054" y="206"/>
<rect fill="#000000" height="1" stroke="#000000" stroke-width="1" width="104" x="1054" y="227"/>
<rect fill="#ffffff" height="68" stroke="#ffffff" stroke-width="1" width="173" x="974" y="374"/>
<rect fill="none" height="68" stroke="#000000" stroke-width="1" width="173" x="974" y="374"/>
<text font-family="Dialog" font-size="12" x="979" y="388">
+ std::vector&lt;GraphNodeInfo&gt;</text>
<rect fill="#000000" height="1" stroke="#000000" stroke-width="1" width="173" x="974" y="398"/>
<rect fill="#000000" height="1" stroke="#000000" stroke-width="1" width="173" x="974" y="419"/>
<polyline fill="none" points="957,222 1054,222" stroke="#000000" stroke-width="1"/>
<polygon fill="#ffffff" points="1054,222 1042,229 1042,215" stroke="#ffffff" stroke-width="1"/>
<polygon fill="none" points="1054,222 1042,229 1042,215" stroke="#000000" stroke-width="1"/>
<polyline fill="none" points="1062,374 1062,248" stroke="#000000" stroke-width="1"/>
<polygon fill="#ffffff" points="1062,374 1057,364 1062,354 1067,364" stroke="#ffffff" stroke-width="1"/>
<polygon fill="none" points="1062,374 1057,364 1062,354 1067,364" stroke="#000000" stroke-width="1"/>
<text font-family="Dialog" font-size="12" x="984" y="316">
 </text>
<text font-family="Dialog" font-size="12" x="1036" y="357">
0..*</text>
<rect fill="#ffffff" height="68" stroke="#ffffff" stroke-width="1" width="225" x="694" y="382"/>
<rect fill="none" height="68" stroke="#000000" stroke-width="1" width="225" x="694" y="382"/>
<text font-family="Dialog" font-size="12" x="699" y="396">
+  std::vector&lt;std::vector&lt;GraphNode&gt;&gt;</text>
<rect fill="#000000" height="1" stroke="#000000" stroke-width="1" width="225" x="694" y="406"/>
<rect fill="#000000" height="1" stroke="#000000" stroke-width="1" width="225" x="694" y="427"/>
<polyline fill="none" points="694,414 597,414" stroke="#000000" stroke-width="1"/>
<polygon fill="#ffffff" points="694,414 684,419 674,414 684,409" stroke="#ffffff" stroke-width="1"/>
<polygon fill="none" points="694,414 684,419 674,414 684,409" stroke="#000000" stroke-width="1"/>
<text font-family="Dialog" font-size="12" x="615" y="394">
 </text>
<text font-family="Dialog" font-size="12" x="603" y="409">
0..*</text>
<polyline fill="none" points="1544,870 1670,870" stroke="#000000" stroke-width="1"/>
<line fill="#000000" stroke="#000000" stroke-width="1" x1="1658" x2="1670" y1="877" y2="870"/>
<line fill="#000000" stroke="#000000" stroke-width="1" x1="1658" x2="1670" y1="863" y2="870"/>
<text font-family="Dialog" font-size="12" x="1582" y="838">
 </text>
<polyline fill="none" points="582,837 582,866" stroke="#000000" stroke-width="1"/>
<line fill="#000000" stroke="#000000" stroke-width="1" x1="575" x2="582" y1="854" y2="866"/>
<line fill="#000000" stroke="#000000" stroke-width="1" x1="589" x2="582" y1="854" y2="866"/>
<text font-family="Dialog" font-size="12" x="594" y="855">
 private inner</text>
<polyline fill="none" points="446,518 413,518" stroke="#000000" stroke-width="1"/>
<line fill="#000000" stroke="#000000" stroke-width="1" x1="425" x2="413" y1="511" y2="518"/>
<line fill="#000000" stroke="#000000" stroke-width="1" x1="425" x2="413" y1="525" y2="518"/>
<text font-family="Dialog" font-size="12" x="355" y="487">
 private inner</text>
<polyline fill="none" points="1054,494 1054,441" stroke="#000000" stroke-width="1"/>
<line fill="#000000" stroke="#000000" stroke-width="1" x1="1061" x2="1054" y1="453" y2="441"/>
<line fill="#000000" stroke="#000000" stroke-width="1" x1="1047" x2="1054" y1="453" y2="441"/>
<text font-family="Dialog" font-size="12" x="977" y="476">
 </text>
<polyline fill="none" points="798,494 798,449" stroke="#000000" stroke-width="1"/>
<line fill="#000000" stroke="#000000" stroke-width="1" x1="805" x2="798" y1="461" y2="449"/>
<line fill="#000000" stroke="#000000" stroke-width="1" x1="791" x2="798" y1="461" y2="449"/>
<text font-family="Dialog" font-size="12" x="720" y="477">
 </text>
<polyline fill="none" points="950,837 950,866" stroke="#000000" stroke-width="1"/>
<line fill="#000000" stroke="#000000" stroke-width="1" x1="943" x2="950" y1="854" y2="866"/>
<line fill="#000000" stroke="#000000" stroke-width="1" x1="957" x2="950" y1="854" y2="866"/>
<text font-family="Dialog" font-size="12" x="965" y="862">
 </text>
</svg>
