<?xml version="1.0" encoding="utf-8" ?>
<!DOCTYPE svg PUBLIC "-//W3C//DTD SVG 1.1//EN" "http://www.w3.org/Graphics/SVG/1.1/DTD/svg11.dtd">
<svg height="748" version="1.1" width="628" xmlns="http://www.w3.org/2000/svg">
<rect fill="#ffffff" height="128" stroke="#ffffff" stroke-width="1" width="256" x="358" y="230"/>
<rect fill="none" height="128" stroke="#000000" stroke-width="1" width="256" x="358" y="230"/>
<text font-family="Dialog" font-size="12" x="471" y="244">
+ Tile</text>
<rect fill="#000000" height="1" stroke="#000000" stroke-width="1" width="256" x="358" y="254"/>
<text font-family="Dialog" font-size="12" x="362" y="269">
-tileNumber : int</text>
<rect fill="#000000" height="1" stroke="#000000" stroke-width="1" width="256" x="358" y="280"/>
<text font-family="Dialog" font-size="12" x="362" y="295">
+Tile(number : int,pParent : QWidget*)</text>
<text font-family="Dialog" font-size="12" x="362" y="312">
+~Tile()</text>
<text font-family="Dialog" font-size="12" x="362" y="329">
+tileClicked(number : int)</text>
<text font-family="Dialog" font-size="12" x="362" y="346">
-reemitClicked()</text>
<rect fill="#ffffff" height="68" stroke="#ffffff" stroke-width="1" width="120" x="486" y="126"/>
<rect fill="none" height="68" stroke="#000000" stroke-width="1" width="120" x="486" y="126"/>
<text font-family="Dialog" font-size="12" x="504" y="140">
+ QPushButton</text>
<rect fill="#000000" height="1" stroke="#000000" stroke-width="1" width="120" x="486" y="150"/>
<rect fill="#000000" height="1" stroke="#000000" stroke-width="1" width="120" x="486" y="171"/>
<polyline fill="none" points="550,230 550,193" stroke="#000000" stroke-width="1"/>
<polygon fill="#ffffff" points="550,193 557,205 543,205" stroke="#ffffff" stroke-width="1"/>
<polygon fill="none" points="550,193 557,205 543,205" stroke="#000000" stroke-width="1"/>
<rect fill="#ffffff" height="67" stroke="#ffffff" stroke-width="1" width="120" x="270" y="14"/>
<rect fill="none" height="67" stroke="#000000" stroke-width="1" width="120" x="270" y="14"/>
<text font-family="Dialog" font-size="12" x="303" y="28">
+ QObject</text>
<rect fill="#000000" height="1" stroke="#000000" stroke-width="1" width="120" x="270" y="38"/>
<rect fill="#000000" height="1" stroke="#000000" stroke-width="1" width="120" x="270" y="59"/>
<line fill="#000000" stroke="#000000" stroke-width="1" x1="454" x2="454" y1="230" y2="225"/>
<line fill="#000000" stroke="#000000" stroke-width="1" x1="454" x2="454" y1="220" y2="215"/>
<line fill="#000000" stroke="#000000" stroke-width="1" x1="454" x2="454" y1="210" y2="205"/>
<line fill="#000000" stroke="#000000" stroke-width="1" x1="454" x2="454" y1="200" y2="195"/>
<line fill="#000000" stroke="#000000" stroke-width="1" x1="454" x2="454" y1="190" y2="185"/>
<line fill="#000000" stroke="#000000" stroke-width="1" x1="454" x2="454" y1="180" y2="175"/>
<line fill="#000000" stroke="#000000" stroke-width="1" x1="454" x2="454" y1="170" y2="165"/>
<line fill="#000000" stroke="#000000" stroke-width="1" x1="454" x2="454" y1="160" y2="155"/>
<line fill="#000000" stroke="#000000" stroke-width="1" x1="454" x2="454" y1="150" y2="145"/>
<line fill="#000000" stroke="#000000" stroke-width="1" x1="454" x2="454" y1="140" y2="135"/>
<line fill="#000000" stroke="#000000" stroke-width="1" x1="454" x2="454" y1="130" y2="125"/>
<line fill="#000000" stroke="#000000" stroke-width="1" x1="454" x2="454" y1="120" y2="115"/>
<line fill="#000000" stroke="#000000" stroke-width="1" x1="454" x2="454" y1="110" y2="105"/>
<line fill="#000000" stroke="#000000" stroke-width="1" x1="454" x2="449" y1="102" y2="102"/>
<line fill="#000000" stroke="#000000" stroke-width="1" x1="444" x2="439" y1="102" y2="102"/>
<line fill="#000000" stroke="#000000" stroke-width="1" x1="434" x2="429" y1="102" y2="102"/>
<line fill="#000000" stroke="#000000" stroke-width="1" x1="424" x2="419" y1="102" y2="102"/>
<line fill="#000000" stroke="#000000" stroke-width="1" x1="414" x2="409" y1="102" y2="102"/>
<line fill="#000000" stroke="#000000" stroke-width="1" x1="404" x2="399" y1="102" y2="102"/>
<line fill="#000000" stroke="#000000" stroke-width="1" x1="394" x2="389" y1="102" y2="102"/>
<line fill="#000000" stroke="#000000" stroke-width="1" x1="384" x2="379" y1="102" y2="102"/>
<line fill="#000000" stroke="#000000" stroke-width="1" x1="374" x2="369" y1="102" y2="102"/>
<line fill="#000000" stroke="#000000" stroke-width="1" x1="366" x2="366" y1="102" y2="97"/>
<line fill="#000000" stroke="#000000" stroke-width="1" x1="366" x2="366" y1="92" y2="87"/>
<line fill="#000000" stroke="#000000" stroke-width="1" x1="366" x2="366" y1="82" y2="80"/>
<polygon fill="#ffffff" points="366,80 373,92 359,92" stroke="#ffffff" stroke-width="1"/>
<polygon fill="none" points="366,80 373,92 359,92" stroke="#000000" stroke-width="1"/>
<text font-family="Dialog" font-size="12" x="392" y="94">
&lt;&lt;realize&gt;&gt;</text>
<rect fill="#ffffff" height="68" stroke="#ffffff" stroke-width="1" width="120" x="270" y="126"/>
<rect fill="none" height="68" stroke="#000000" stroke-width="1" width="120" x="270" y="126"/>
<text font-family="Dialog" font-size="12" x="291" y="140">
+ QStyleSheet</text>
<rect fill="#000000" height="1" stroke="#000000" stroke-width="1" width="120" x="270" y="150"/>
<rect fill="#000000" height="1" stroke="#000000" stroke-width="1" width="120" x="270" y="171"/>
<polyline fill="none" points="374,230 374,193" stroke="#000000" stroke-width="1"/>
<line fill="#000000" stroke="#000000" stroke-width="1" x1="381" x2="374" y1="205" y2="193"/>
<line fill="#000000" stroke="#000000" stroke-width="1" x1="367" x2="374" y1="205" y2="193"/>
<text font-family="Dialog" font-size="12" x="296" y="217">
 </text>
<rect fill="#ffffff" height="500" stroke="#ffffff" stroke-width="1" width="300" x="14" y="230"/>
<rect fill="none" height="500" stroke="#000000" stroke-width="1" width="300" x="14" y="230"/>
<text font-family="Dialog" font-size="12" x="142" y="244">
+ Board</text>
<rect fill="#000000" height="1" stroke="#000000" stroke-width="1" width="300" x="14" y="254"/>
<text font-family="Dialog" font-size="12" x="18" y="269">
+m_tileSize : int</text>
<text font-family="Dialog" font-size="12" x="18" y="286">
+m_tilesCountX : int</text>
<text font-family="Dialog" font-size="12" x="18" y="303">
+m_tilesCountY : int</text>
<text font-family="Dialog" font-size="12" x="18" y="320">
+m_spacer : int</text>
<text font-family="Dialog" font-size="12" x="18" y="337">
+m_boardSpacer : int</text>
<text font-family="Dialog" font-size="12" x="18" y="354">
+m_boardSizeX : int</text>
<text font-family="Dialog" font-size="12" x="18" y="371">
+m_boardSizeY : int</text>
<text font-family="Dialog" font-size="12" x="18" y="388">
+m_topLeftX : int</text>
<text font-family="Dialog" font-size="12" x="18" y="405">
+m_topLeftY : int</text>
<text font-family="Dialog" font-size="12" x="18" y="422">
-tiles : std::vector&lt;PlacedTile*&gt;</text>
<rect fill="#000000" height="1" stroke="#000000" stroke-width="1" width="300" x="14" y="432"/>
<text font-family="Dialog" font-size="12" x="18" y="447">
+Board(pParent : QWidget*)</text>
<text font-family="Dialog" font-size="12" x="18" y="464">
+~Board()</text>
<text font-family="Dialog" font-size="12" x="18" y="481">
+setTilesDisabled(value : bool)</text>
<text font-family="Dialog" font-size="12" x="18" y="498">
+getTilePosition(index : int) : int</text>
<text font-family="Dialog" font-size="12" x="18" y="515">
+getHolePosition() : int</text>
<text font-family="Dialog" font-size="12" x="18" y="532">
+getQuantityOfTilesn() : int</text>
<text font-family="Dialog" font-size="12" x="18" y="549">
+setTilesPositon(newState : std::vector&lt;int&gt;)</text>
<text font-family="Dialog" font-size="12" x="18" y="566">
+getBoardState() : std::vector&lt;int&gt;</text>
<text font-family="Dialog" font-size="12" x="18" y="583">
+buildCorrectOrder()</text>
<text font-family="Dialog" font-size="12" x="18" y="600">
+buildRandomOrder(solvabilityCheck : bool)</text>
<text font-family="Dialog" font-size="12" x="18" y="617">
-swapTiles(first : int,second : int)</text>
<text font-family="Dialog" font-size="12" x="18" y="634">
-tilePoint(place : int) : QPoint</text>
<text font-family="Dialog" font-size="12" x="18" y="651">
-sizeCalc(count : int) : int</text>
<text font-family="Dialog" font-size="12" x="18" y="668">
-freePlaceIsNearby(place : int) : bool</text>
<text font-family="Dialog" font-size="12" x="18" y="685">
-orderIsSolvable(tilesPosition : std::vector&lt;int&gt;) : bool</text>
<text font-family="Dialog" font-size="12" x="18" y="702">
-moveTile(tile : PlacedTile,place : int)</text>
<text font-family="Dialog" font-size="12" x="18" y="719">
-clickOnTile(number : int)</text>
<rect fill="#ffffff" height="68" stroke="#ffffff" stroke-width="1" width="120" x="14" y="126"/>
<rect fill="none" height="68" stroke="#000000" stroke-width="1" width="120" x="14" y="126"/>
<text font-family="Dialog" font-size="12" x="46" y="140">
+ QFrame</text>
<rect fill="#000000" height="1" stroke="#000000" stroke-width="1" width="120" x="14" y="150"/>
<rect fill="#000000" height="1" stroke="#000000" stroke-width="1" width="120" x="14" y="171"/>
<polyline fill="none" points="78,230 78,193" stroke="#000000" stroke-width="1"/>
<polygon fill="#ffffff" points="78,193 85,205 71,205" stroke="#ffffff" stroke-width="1"/>
<polygon fill="none" points="78,193 85,205 71,205" stroke="#000000" stroke-width="1"/>
<line fill="#000000" stroke="#000000" stroke-width="1" x1="182" x2="182" y1="230" y2="225"/>
<line fill="#000000" stroke="#000000" stroke-width="1" x1="182" x2="182" y1="220" y2="215"/>
<line fill="#000000" stroke="#000000" stroke-width="1" x1="182" x2="182" y1="210" y2="205"/>
<line fill="#000000" stroke="#000000" stroke-width="1" x1="182" x2="182" y1="200" y2="195"/>
<line fill="#000000" stroke="#000000" stroke-width="1" x1="182" x2="182" y1="190" y2="185"/>
<line fill="#000000" stroke="#000000" stroke-width="1" x1="182" x2="182" y1="180" y2="175"/>
<line fill="#000000" stroke="#000000" stroke-width="1" x1="182" x2="182" y1="170" y2="165"/>
<line fill="#000000" stroke="#000000" stroke-width="1" x1="182" x2="182" y1="160" y2="155"/>
<line fill="#000000" stroke="#000000" stroke-width="1" x1="182" x2="182" y1="150" y2="145"/>
<line fill="#000000" stroke="#000000" stroke-width="1" x1="182" x2="182" y1="140" y2="135"/>
<line fill="#000000" stroke="#000000" stroke-width="1" x1="182" x2="182" y1="130" y2="125"/>
<line fill="#000000" stroke="#000000" stroke-width="1" x1="182" x2="182" y1="120" y2="115"/>
<line fill="#000000" stroke="#000000" stroke-width="1" x1="182" x2="182" y1="110" y2="105"/>
<line fill="#000000" stroke="#000000" stroke-width="1" x1="182" x2="187" y1="102" y2="102"/>
<line fill="#000000" stroke="#000000" stroke-width="1" x1="192" x2="197" y1="102" y2="102"/>
<line fill="#000000" stroke="#000000" stroke-width="1" x1="202" x2="207" y1="102" y2="102"/>
<line fill="#000000" stroke="#000000" stroke-width="1" x1="212" x2="217" y1="102" y2="102"/>
<line fill="#000000" stroke="#000000" stroke-width="1" x1="222" x2="227" y1="102" y2="102"/>
<line fill="#000000" stroke="#000000" stroke-width="1" x1="232" x2="237" y1="102" y2="102"/>
<line fill="#000000" stroke="#000000" stroke-width="1" x1="242" x2="247" y1="102" y2="102"/>
<line fill="#000000" stroke="#000000" stroke-width="1" x1="252" x2="257" y1="102" y2="102"/>
<line fill="#000000" stroke="#000000" stroke-width="1" x1="262" x2="267" y1="102" y2="102"/>
<line fill="#000000" stroke="#000000" stroke-width="1" x1="272" x2="277" y1="102" y2="102"/>
<line fill="#000000" stroke="#000000" stroke-width="1" x1="282" x2="287" y1="102" y2="102"/>
<line fill="#000000" stroke="#000000" stroke-width="1" x1="292" x2="294" y1="102" y2="102"/>
<line fill="#000000" stroke="#000000" stroke-width="1" x1="294" x2="294" y1="102" y2="97"/>
<line fill="#000000" stroke="#000000" stroke-width="1" x1="294" x2="294" y1="92" y2="87"/>
<line fill="#000000" stroke="#000000" stroke-width="1" x1="294" x2="294" y1="82" y2="80"/>
<polygon fill="#ffffff" points="294,80 301,92 287,92" stroke="#ffffff" stroke-width="1"/>
<polygon fill="none" points="294,80 301,92 287,92" stroke="#000000" stroke-width="1"/>
<text font-family="Dialog" font-size="12" x="139" y="95">
&lt;&lt;realize&gt;&gt;</text>
<rect fill="#ffffff" height="128" stroke="#ffffff" stroke-width="1" width="256" x="358" y="606"/>
<rect fill="none" height="128" stroke="#000000" stroke-width="1" width="256" x="358" y="606"/>
<text font-family="Dialog" font-size="12" x="415" y="620">
+ std::vector&lt;PlacedTile*&gt;</text>
<rect fill="#000000" height="1" stroke="#000000" stroke-width="1" width="256" x="358" y="630"/>
<rect fill="#000000" height="1" stroke="#000000" stroke-width="1" width="256" x="358" y="681"/>
<polyline fill="none" points="294,230 294,193" stroke="#000000" stroke-width="1"/>
<line fill="#000000" stroke="#000000" stroke-width="1" x1="301" x2="294" y1="205" y2="193"/>
<line fill="#000000" stroke="#000000" stroke-width="1" x1="287" x2="294" y1="205" y2="193"/>
<text font-family="Dialog" font-size="12" x="216" y="217">
 </text>
<polyline fill="none" points="313,606 358,606" stroke="#000000" stroke-width="1"/>
<line fill="#000000" stroke="#000000" stroke-width="1" x1="346" x2="358" y1="613" y2="606"/>
<line fill="#000000" stroke="#000000" stroke-width="1" x1="346" x2="358" y1="599" y2="606"/>
<text font-family="Dialog" font-size="12" x="304" y="586">
 </text>
<rect fill="#ffffff" height="128" stroke="#ffffff" stroke-width="1" width="256" x="358" y="425"/>
<rect fill="none" height="128" stroke="#000000" stroke-width="1" width="256" x="358" y="425"/>
<text font-family="Dialog" font-size="12" x="452" y="439">
+ PlacedTile</text>
<rect fill="#000000" height="1" stroke="#000000" stroke-width="1" width="256" x="358" y="449"/>
<text font-family="Dialog" font-size="12" x="362" y="464">
-position : int</text>
<rect fill="#000000" height="1" stroke="#000000" stroke-width="1" width="256" x="358" y="483"/>
<text font-family="Dialog" font-size="12" x="362" y="498">
+PlacedTile(number : int,pParent : QWidget*)</text>
<text font-family="Dialog" font-size="12" x="362" y="515">
+getPosition() : int</text>
<text font-family="Dialog" font-size="12" x="362" y="532">
+setPosition(value : int)</text>
<polyline fill="none" points="486,606 486,552" stroke="#000000" stroke-width="1"/>
<polygon fill="#ffffff" points="486,606 481,596 486,586 491,596" stroke="#ffffff" stroke-width="1"/>
<polygon fill="none" points="486,606 481,596 486,586 491,596" stroke="#000000" stroke-width="1"/>
<text font-family="Dialog" font-size="12" x="408" y="584">
 </text>
<text font-family="Dialog" font-size="12" x="460" y="588">
0..*</text>
<polyline fill="none" points="486,425 486,357" stroke="#000000" stroke-width="1"/>
<polygon fill="#ffffff" points="486,357 493,369 479,369" stroke="#ffffff" stroke-width="1"/>
<polygon fill="none" points="486,357 493,369 479,369" stroke="#000000" stroke-width="1"/>
</svg>
