<?xml version="1.0" encoding="UTF-8" standalone="no"?>
<!-- Created with Inkscape (http://www.inkscape.org/) -->

<svg
   xmlns:dc="http://purl.org/dc/elements/1.1/"
   xmlns:cc="http://creativecommons.org/ns#"
   xmlns:rdf="http://www.w3.org/1999/02/22-rdf-syntax-ns#"
   xmlns:svg="http://www.w3.org/2000/svg"
   xmlns="http://www.w3.org/2000/svg"
   xmlns:sodipodi="http://sodipodi.sourceforge.net/DTD/sodipodi-0.dtd"
   xmlns:inkscape="http://www.inkscape.org/namespaces/inkscape"
   id="svg2"
   version="1.1"
   inkscape:version="0.48.4 r9939"
   width="264.74701"
   height="264.74701"
   xml:space="preserve"
   sodipodi:docname="octocat2.svg"><metadata
     id="metadata8"><rdf:RDF><cc:Work
         rdf:about=""><dc:format>image/svg+xml</dc:format><dc:type
           rdf:resource="http://purl.org/dc/dcmitype/StillImage" /><dc:title /></cc:Work></rdf:RDF></metadata><defs
     id="defs6"><clipPath
       clipPathUnits="userSpaceOnUse"
       id="clipPath14"><path
         d="M 0,0 555,0 555,762 0,762 0,0 z"
         id="path16"
         inkscape:connector-curvature="0" /></clipPath><clipPath
       clipPathUnits="userSpaceOnUse"
       id="clipPath22"><path
         d="m 0,0 555,0 0,761.46 -555,0 L 0,0 z"
         id="path24"
         inkscape:connector-curvature="0" /></clipPath><clipPath
       clipPathUnits="userSpaceOnUse"
       id="clipPath34"><path
         d="m 0,0 555,0 0,761.46 -555,0 L 0,0 z"
         id="path36"
         inkscape:connector-curvature="0" /></clipPath><clipPath
       clipPathUnits="userSpaceOnUse"
       id="clipPath40"><path
         d="M 0,0 555,0 555,555 0,555 0,0 z"
         id="path42"
         inkscape:connector-curvature="0" /></clipPath><clipPath
       clipPathUnits="userSpaceOnUse"
       id="clipPath14-1"><path
         inkscape:connector-curvature="0"
         d="M 0,0 555,0 555,762 0,762 0,0 z"
         id="path16-8" /></clipPath><clipPath
       clipPathUnits="userSpaceOnUse"
       id="clipPath22-8"><path
         inkscape:connector-curvature="0"
         d="m 0,0 555,0 0,761.46 -555,0 L 0,0 z"
         id="path24-0" /></clipPath><clipPath
       clipPathUnits="userSpaceOnUse"
       id="clipPath34-0"><path
         inkscape:connector-curvature="0"
         d="m 0,0 555,0 0,761.46 -555,0 L 0,0 z"
         id="path36-7" /></clipPath><clipPath
       clipPathUnits="userSpaceOnUse"
       id="clipPath40-6"><path
         inkscape:connector-curvature="0"
         d="M 0,0 555,0 555,555 0,555 0,0 z"
         id="path42-9" /></clipPath><clipPath
       clipPathUnits="userSpaceOnUse"
       id="clipPath14-1-5"><path
         inkscape:connector-curvature="0"
         d="M 0,0 555,0 555,762 0,762 0,0 z"
         id="path16-8-0" /></clipPath><clipPath
       clipPathUnits="userSpaceOnUse"
       id="clipPath22-8-5"><path
         inkscape:connector-curvature="0"
         d="m 0,0 555,0 0,761.46 -555,0 L 0,0 z"
         id="path24-0-9" /></clipPath><clipPath
       clipPathUnits="userSpaceOnUse"
       id="clipPath34-0-3"><path
         inkscape:connector-curvature="0"
         d="m 0,0 555,0 0,761.46 -555,0 L 0,0 z"
         id="path36-7-1" /></clipPath><clipPath
       clipPathUnits="userSpaceOnUse"
       id="clipPath40-6-0"><path
         inkscape:connector-curvature="0"
         d="M 0,0 555,0 555,555 0,555 0,0 z"
         id="path42-9-7" /></clipPath></defs><sodipodi:namedview
     pagecolor="#ffffff"
     bordercolor="#666666"
     borderopacity="1"
     objecttolerance="10"
     gridtolerance="10"
     guidetolerance="10"
     inkscape:pageopacity="0"
     inkscape:pageshadow="2"
     inkscape:window-width="1920"
     inkscape:window-height="1031"
     id="namedview4"
     showgrid="false"
     fit-margin-top="0"
     fit-margin-left="0"
     fit-margin-right="0"
     fit-margin-bottom="0"
     inkscape:zoom="0.67425132"
     inkscape:cx="250.83213"
     inkscape:cy="172.62198"
     inkscape:window-x="0"
     inkscape:window-y="0"
     inkscape:window-maximized="1"
     inkscape:current-layer="g10" /><g
     id="g10"
     inkscape:groupmode="layer"
     inkscape:label="uxrepo.com_static_icon-sets_elusive_svg_github"
     transform="matrix(1.25,0,0,1.25,-301.94915,-292.30606)"><g
       transform="matrix(0.38164172,0,0,0.38164172,241.55932,233.84485)"
       id="g12"
       clip-path="url(#clipPath14-1-5)"><g
         id="g30"><g
           id="g32"
           clip-path="url(#clipPath34-0-3)"><g
             id="g38"
             clip-path="url(#clipPath40-6-0)"><g
               id="g44"
               transform="scale(0.555,0.555)"><path
                 inkscape:connector-curvature="0"
                 d="M 0,499.968 C 0,361.956 48.825,244.125 146.475,146.475 244.125,48.825 361.956,0 499.968,0 637.98,0 755.811,48.825 853.4611,146.475 c 97.65,97.65 146.4749,215.481 146.4749,353.493 0,138.012 -48.825,255.843 -146.4749,353.493 -97.6499,97.65 -215.481,146.475 -353.4931,146.475 -138.012,0 -255.843,-48.825 -353.493,-146.4749 C 48.8251,755.811 1e-4,637.9801 0,499.968 l 0,0 z m 54.684,0 c 0,122.388 43.617,227.199 130.851,314.433 87.234,87.234 192.045,130.851 314.433,130.851 122.3881,1e-4 227.199,-43.617 314.433,-130.851 C 901.6349,727.167 945.252,622.356 945.252,499.968 945.2521,377.58 901.6351,272.769 814.401,185.535 727.167,98.301 622.356,54.684 499.968,54.684 377.58,54.684 272.769,98.301 185.535,185.535 98.3009,272.769 54.6839,377.58 54.684,499.968 l 0,0 z M 195.3,607.383 c -2.604,-2.604 -2.604,-5.208 0,-7.812 5.208,-5.208 11.718,-7.161 19.53,-5.859 7.812,1.302 12.369,2.604 13.671,3.906 9.114,3.906 19.2043,12.6947 30.271,26.366 11.0667,13.6714 19.8554,23.111 26.366,28.319 31.248,26.04 63.147,27.993 95.697,5.859 2.604,-9.114 6.8353,-16.926 12.694,-23.436 5.8587,-6.5099 11.3923,-11.0669 16.601,-13.671 5.2087,-2.6041 14.3227,-6.5101 27.342,-11.718 -42.966,-3.906 -77.7947,-11.3927 -104.486,-22.46 -26.6913,-11.0674 -47.849,-25.0637 -63.473,-41.9891 -20.832,-23.4359 -33.5266,-54.033 -38.084,-91.791 -4.5573,-37.758 -1.6276,-72.261 8.789,-103.509 7.812,-19.53 18.879,-37.1069 33.201,-52.731 -10.4159,-32.55 -8.4629,-69.657 5.859,-111.321 41.6641,2.604 79.422,16.926 113.2741,42.966 65.1,-16.926 132.804,-17.577 203.112,-1.953 9.114,-6.51 23.1103,-14.6476 41.989,-24.413 18.8786,-9.7653 42.6404,-15.299 71.285,-16.601 5.2081,14.322 8.7887,31.2481 10.742,50.778 1.9534,19.53 0.9771,37.7581 -2.929,54.684 29.946,31.2481 45.5701,72.912 46.872,124.9921 10e-5,41.664 -7.1609,76.1669 -21.483,103.5089 -14.3219,27.342 -39.7109,50.127 -76.167,68.355 -24.7379,11.718 -57.2879,18.879 -97.65,21.483 18.228,9.114 31.5737,18.5536 40.037,28.319 8.4634,9.7654 13.997,25.0637 16.601,45.895 l 0,61.52 c 0,1e-4 0.6511,19.8558 1.953,59.5671 3.9061,6.51 8.4631,12.0437 13.671,16.601 5.2081,4.5573 9.7651,7.8123 13.6711,9.765 3.906,1.9527 5.208,4.8824 3.906,8.789 -1.302,3.9067 -6.51,5.8597 -15.6241,5.859 -22.1339,1e-4 -39.711,-7.8119 -52.731,-23.436 -3.906,-6.51 -5.859,-14.322 -5.859,-23.4359 l 0,-93.7441 c 0,-10.4159 -2.604,-17.9027 -7.812,-22.46 -5.208,-4.5573 -10.416,-7.4869 -15.624,-8.789 l 0,123.039 c 0,22.134 2.604,36.456 7.812,42.966 5.208,6.51 8.463,13.02 9.765,19.53 1.302,1.302 0.3257,2.2784 -2.929,2.9291 -3.2546,0.6507 -8.7883,-0.3257 -16.601,-2.9291 -16.926,-3.906 -28.644,-12.6946 -35.154,-26.366 -6.51,-13.6713 -9.765,-28.319 -9.765,-43.943 l 0,-121.086 -25.389,0 0,121.086 c 0,15.6241 -3.255,30.5971 -9.765,44.919 -9.114,18.2281 -26.0401,27.993 -50.778,29.295 -3.906,-1.302 -5.859,-2.604 -5.859,-3.906 1.302,-1.302 5.208,-7.812 11.7179,-19.53 1.3021,-2.604 2.9297,-7.812 4.883,-15.624 1.9534,-7.8121 2.9297,-16.9261 2.929,-27.342 l 0,-123.039 c -5.208,1.302 -10.0906,4.2317 -14.648,8.789 -4.5573,4.5573 -6.836,12.044 -6.836,22.46 l 0,93.744 c 0,9.114 -1.953,16.926 -5.859,23.436 -11.7179,15.624 -29.295,23.4361 -52.731,23.436 -9.114,0 -14.322,-1.953 -15.624,-5.859 -1.302,-2.604 -0.9763,-4.8827 0.977,-6.836 1.9533,-1.9534 4.883,-4.232 8.789,-6.836 3.906,-2.604 6.51,-4.557 7.812,-5.8591 5.208,-3.906 9.114,-9.114 11.718,-15.624 3.906,-5.208 4.8823,-18.8789 2.929,-41.013 -1.9534,-22.1339 -2.279,-36.4559 -0.977,-42.966 -33.852,11.718 -68.355,5.859 -103.509,-17.577 -10.416,-10.416 -20.832,-25.389 -31.248,-44.919 -7.812,-14.322 -23.436,-31.248 -46.872,-50.778 l 0,1e-4 z"
                 style="fill:#000000;fill-opacity:1;fill-rule:nonzero;stroke:none"
                 id="path46" /></g></g></g></g></g></g></svg>