<?xml version="1.0" encoding="UTF-8" standalone="no"?>
<!-- Created with Inkscape (http://www.inkscape.org/) -->

<svg
   xmlns:dc="http://purl.org/dc/elements/1.1/"
   xmlns:cc="http://creativecommons.org/ns#"
   xmlns:rdf="http://www.w3.org/1999/02/22-rdf-syntax-ns#"
   xmlns:svg="http://www.w3.org/2000/svg"
   xmlns="http://www.w3.org/2000/svg"
   xmlns:sodipodi="http://sodipodi.sourceforge.net/DTD/sodipodi-0.dtd"
   xmlns:inkscape="http://www.inkscape.org/namespaces/inkscape"
   width="263.95483"
   height="225.72047"
   id="svg3281"
   version="1.1"
   inkscape:version="0.48.4 r9939"
   sodipodi:docname="opensource.svg">
  <defs
     id="defs3283" />
  <sodipodi:namedview
     id="base"
     pagecolor="#ffffff"
     bordercolor="#666666"
     borderopacity="1.0"
     inkscape:pageopacity="0.0"
     inkscape:pageshadow="2"
     inkscape:zoom="0.24748738"
     inkscape:cx="219.70734"
     inkscape:cy="82.765978"
     inkscape:document-units="px"
     inkscape:current-layer="layer1"
     showgrid="false"
     fit-margin-top="0"
     fit-margin-left="0"
     fit-margin-right="0"
     fit-margin-bottom="0"
     inkscape:window-width="764"
     inkscape:window-height="413"
     inkscape:window-x="727"
     inkscape:window-y="308"
     inkscape:window-maximized="0" />
  <metadata
     id="metadata3286">
    <rdf:RDF>
      <cc:Work
         rdf:about="">
        <dc:format>image/svg+xml</dc:format>
        <dc:type
           rdf:resource="http://purl.org/dc/dcmitype/StillImage" />
        <dc:title />
      </cc:Work>
    </rdf:RDF>
  </metadata>
  <g
     inkscape:label="Layer 1"
     inkscape:groupmode="layer"
     id="layer1"
     transform="translate(-243.02259,-419.00195)">
    <path
       inkscape:connector-curvature="0"
       id="path128"
       style="fill:#40aa54;fill-opacity:1;fill-rule:nonzero;stroke:none"
       d="m 373.44745,422.00195 c -44.72896,0 -80.98891,36.25994 -80.98891,80.98941 0,34.71821 21.85217,64.32377 52.54925,75.83962 l 18.66358,-49.76972 c -10.55196,-3.95805 -18.0638,-14.13559 -18.0638,-26.0699 0,-15.37568 12.46471,-27.84029 27.83988,-27.84029 15.37568,0 27.84089,12.46461 27.84089,27.84029 0,11.93431 -7.51233,22.11185 -18.0643,26.0699 l 18.66358,49.76972 c 30.69659,-11.51585 52.54935,-41.12141 52.54935,-75.83962 0,-44.72947 -36.25955,-80.98941 -80.98952,-80.98941 z" />
    <path
       inkscape:connector-curvature="0"
       id="path130"
       style="fill:none;stroke:#20552a;stroke-width:6;stroke-linecap:butt;stroke-linejoin:miter;stroke-miterlimit:10;stroke-opacity:1;stroke-dasharray:none"
       d="m 373.44745,422.00195 c -44.72896,0 -80.98891,36.25994 -80.98891,80.98941 0,34.71821 21.85217,64.32377 52.54925,75.83962 l 18.66358,-49.76972 c -10.55196,-3.95805 -18.0638,-14.13559 -18.0638,-26.0699 0,-15.37568 12.46471,-27.84029 27.83988,-27.84029 15.37568,0 27.84089,12.46461 27.84089,27.84029 0,11.93431 -7.51233,22.11185 -18.0643,26.0699 l 18.66358,49.76972 c 30.69659,-11.51585 52.54935,-41.12141 52.54935,-75.83962 0,-44.72947 -36.25955,-80.98941 -80.98952,-80.98941 z" />
    <path
       inkscape:connector-curvature="0"
       id="path136"
       style="fill:#000000;fill-opacity:1;fill-rule:nonzero;stroke:#000000;stroke-opacity:1;stroke-width:1"
       d="m 261.24517,618.73812 c 0,3.30652 -2.69974,6.07323 -6.07413,6.07323 -3.44186,0 -6.07472,-2.76671 -6.07472,-6.07323 l 0,-8.77345 c 0,-3.30652 2.69983,-6.07423 6.07472,-6.07423 3.37439,0 6.07413,2.76771 6.07413,6.07423 l 0,8.77345 z m 6.07422,0 0,-8.77345 c 0,-6.81726 -4.79199,-11.4739 -12.14835,-11.4739 -7.35646,0 -12.14845,4.59016 -12.14845,11.4739 l 0,8.77345 c 0,6.88374 4.79199,11.4729 12.14845,11.4729 7.35636,0 12.14835,-4.58916 12.14835,-11.4729 z" />
    <path
       inkscape:connector-curvature="0"
       id="path138"
       style="fill:#000000;fill-opacity:1;fill-rule:nonzero;stroke:#000000;stroke-opacity:1;stroke-width:1"
       d="m 288.91547,618.06257 c 0,3.30741 -2.63186,6.07523 -6.07423,6.07523 -3.3744,0 -6.07373,-2.76782 -6.07373,-6.07523 l 0,-7.42235 c 0,-3.30841 2.69933,-6.07623 6.07373,-6.07623 3.44237,0 6.07423,2.76782 6.07423,6.07623 l 0,7.42235 z m 6.07422,0 0,-7.42235 c 0,-6.81625 -4.85896,-11.47479 -11.67572,-11.47479 -3.98158,0 -5.8714,2.228 -6.74829,2.228 -0.2703,0 -0.47323,-0.2708 -0.47323,-0.74293 l 0,-0.8086 c 0,-0.47214 -0.20232,-0.67647 -0.67456,-0.67647 l -4.04945,0 c -0.47222,0 -0.67516,0.20433 -0.67516,0.67647 l 0,44.20396 c 0,0.47324 0.20294,0.67656 0.67516,0.67656 l 4.72401,0 c 0.47323,0 0.67506,-0.20332 0.67506,-0.67656 l 0,-15.99446 c 0,-0.47324 0.20243,-0.74204 0.53971,-0.74204 0.60758,0 2.63236,2.2271 6.54646,2.2271 6.27705,0 11.13601,-4.85896 11.13601,-11.47389 z" />
    <path
       inkscape:connector-curvature="0"
       id="path140"
       style="fill:#000000;fill-opacity:1;fill-rule:nonzero;stroke:#000000;stroke-opacity:1;stroke-width:1"
       d="m 314.96674,610.64022 -10.79784,0 c -0.60758,0 -0.67556,-0.2708 -0.67556,-1.01384 0,-2.96824 2.83479,-5.73594 6.07523,-5.73594 3.17156,0 6.07372,2.70023 6.07372,5.60099 0,0.81052 -0.067,1.14879 -0.67555,1.14879 z m 6.74878,4.04745 0,-4.723 c 0,-6.1407 -5.39916,-11.4739 -12.14695,-11.4739 -6.74928,0 -12.14895,5.3332 -12.14895,11.4739 l 0,8.77345 c 0,6.88374 4.79209,11.4729 12.14895,11.4729 3.57672,0 6.41101,-0.94536 8.43579,-2.83429 2.02417,-1.88982 2.83467,-3.6447 2.83467,-4.11692 0,-0.20233 -0.13495,-0.33728 -0.40525,-0.47214 l -4.25227,-2.15973 c -0.13346,-0.0675 -0.26992,-0.13484 -0.40427,-0.13484 -0.40525,0 -1.01294,1.07931 -2.498,2.83518 -0.74254,0.87599 -2.09115,1.48307 -3.71067,1.48307 -3.44237,0 -6.07523,-2.76671 -6.07523,-6.07323 l 0,-2.69932 c 0,-0.47214 0.20293,-0.67557 0.67556,-0.67557 l 16.87257,0 c 0.47212,0 0.67405,-0.20332 0.67405,-0.67556 z" />
    <path
       inkscape:connector-curvature="0"
       id="path142"
       style="fill:#000000;fill-opacity:1;fill-rule:nonzero;stroke:#000000;stroke-opacity:1;stroke-width:1"
       d="m 348.23993,629.53646 -4.72351,0 c -0.47223,0 -0.67467,-0.20243 -0.67467,-0.67466 l 0,-18.22158 c 0,-3.30841 -2.63285,-6.07623 -6.07462,-6.07623 -3.37439,0 -6.07473,2.76782 -6.07473,6.07623 l 0,18.22158 c 0,0.47223 -0.20192,0.67466 -0.67414,0.67466 l -4.72452,0 c -0.47273,0 -0.67556,-0.20243 -0.67556,-0.67466 l 0,-29.0199 c 0,-0.47214 0.20283,-0.67647 0.67556,-0.67647 l 4.04995,0 c 0.47274,0 0.67457,0.20433 0.67457,0.67647 l 0,0.8086 c 0,0.47213 0.20192,0.74293 0.47222,0.74293 0.87649,0 2.76681,-2.228 6.74879,-2.228 6.81726,0 11.67622,4.65854 11.67622,11.47479 l 0,18.22158 c 0,0.47223 -0.20334,0.67466 -0.67556,0.67466 z" />
    <path
       inkscape:connector-curvature="0"
       id="path144"
       style="fill:#000000;fill-opacity:1;fill-rule:nonzero;stroke:#000000;stroke-opacity:1;stroke-width:1"
       d="m 365.78704,607.06291 c 0,2.76681 2.09267,4.04945 6.74929,5.06139 7.76162,1.68738 12.08088,2.69932 12.08088,8.3688 0,5.73595 -4.1853,9.71792 -10.73127,9.71792 l -2.09265,0 c -6.27615,0 -10.39357,-3.77965 -10.39357,-5.8718 0,-0.20142 0.13645,-0.33638 0.47373,-0.47224 l 2.63135,-1.28174 c 0.13545,-0.0684 0.2693,-0.0684 0.33728,-0.0684 0.20244,0 0.33879,0.13485 0.54071,0.33818 1.75438,1.9563 3.10399,3.77965 6.4105,3.77965 l 2.09265,0 c 3.78015,0 6.20959,-2.15963 6.20959,-4.92734 0,-2.497 -2.09215,-3.98208 -6.61484,-4.92644 -7.8276,-1.62101 -12.08097,-2.42952 -12.08097,-8.3698 0,-5.53351 4.11742,-9.38064 10.39357,-9.38064 l 2.09265,0 c 6.14221,0 10.32561,3.71317 10.32561,5.73784 0,0.20244 -0.20242,0.33639 -0.47223,0.47224 l -2.56538,1.28173 c -0.13295,0.0684 -0.20142,0.0684 -0.26981,0.0684 -0.20243,0 -0.33538,-0.13585 -0.5397,-0.33918 -1.88883,-2.02377 -3.44036,-3.6428 -6.47849,-3.6428 l -2.09265,0 c -3.91359,0 -6.00625,1.6875 -6.00625,4.45422 z" />
    <path
       inkscape:connector-curvature="0"
       id="path146"
       style="fill:#000000;fill-opacity:1;fill-rule:nonzero;stroke:#000000;stroke-opacity:1;stroke-width:1"
       d="m 406.4171,619.14198 c 0,3.9155 -3.17346,7.22292 -7.22101,7.22292 -4.04945,0 -7.15543,-3.30742 -7.15543,-7.22292 l 0,-9.10993 c 0,-3.98198 3.03761,-7.15444 7.15543,-7.15444 4.04755,0 7.22101,3.30741 7.22101,7.15444 l 0,9.10993 z m 4.58816,0 0,-9.10993 c 0,-6.54737 -4.65553,-11.00157 -11.80917,-11.00157 -7.15543,0 -11.67712,4.31925 -11.67712,11.00157 l 0,9.10993 c 0,6.6832 4.52169,11.06904 11.67712,11.06904 7.15364,0 11.80917,-4.45421 11.80917,-11.06904 z" />
    <path
       inkscape:connector-curvature="0"
       id="path148"
       style="fill:#000000;fill-opacity:1;fill-rule:nonzero;stroke:#000000;stroke-opacity:1;stroke-width:1"
       d="m 437.32784,629.53646 -2.49691,0 c -0.47222,0 -0.67555,-0.20243 -0.67555,-0.67466 l 0,-2.90265 c 0,-0.47224 -0.26891,-0.74104 -0.53971,-0.74104 -0.60708,0 -1.28074,1.07931 -2.496,2.29457 -1.35013,1.28074 -3.3749,2.02378 -5.602,2.02378 -6.1416,0 -11.00156,-4.52168 -11.00156,-11.06814 l 0,-18.08773 c 0,-0.47222 0.20332,-0.67456 0.67556,-0.67456 l 3.17156,0 c 0.47313,0 0.67456,0.20234 0.67456,0.67456 l 0,18.08773 c 0,3.9146 3.17347,7.22201 7.15544,7.22201 4.1835,0 7.28849,-3.24003 7.28849,-7.22201 l 0,-18.08773 c 0,-0.47222 0.20142,-0.67456 0.67366,-0.67456 l 3.17246,0 c 0.47223,0 0.67455,0.20234 0.67455,0.67456 l 0,28.48121 c 0,0.47223 -0.20232,0.67466 -0.67455,0.67466 z" />
    <path
       inkscape:connector-curvature="0"
       id="path150"
       style="fill:#000000;fill-opacity:1;fill-rule:nonzero;stroke:#000000;stroke-opacity:1;stroke-width:1"
       d="m 458.45118,604.49752 c -0.53871,0 -1.4166,-0.20133 -2.56439,-0.20133 -4.11592,0 -7.15354,3.10309 -7.15354,7.08507 l 0,17.48054 c 0,0.47223 -0.20142,0.67466 -0.67454,0.67466 l -3.24095,0 c -0.47223,0 -0.67366,-0.20243 -0.67366,-0.67466 l 0,-28.4812 c 0,-0.47223 0.20143,-0.67457 0.67366,-0.67457 l 2.49891,0 c 0.47212,0 0.67455,0.20234 0.67455,0.67457 l 0,3.37488 c 0,0.47224 0.26981,0.74204 0.54061,0.74204 0.74014,0 1.82145,-1.6874 4.25087,-3.6447 0.74204,-0.60708 2.15873,-1.14679 3.10409,-1.14679 l 2.49791,0 c 0.47323,0 0.67455,0.20234 0.67455,0.67456 l 0,3.44338 c 0,0.5387 -0.13585,0.67355 -0.60807,0.67355 z" />
    <path
       inkscape:connector-curvature="0"
       id="path152"
       style="fill:#000000;fill-opacity:1;fill-rule:nonzero;stroke:#000000;stroke-opacity:1;stroke-width:1"
       d="m 481.06058,624.27274 c 0,2.15863 -4.11692,5.93828 -10.45995,5.93828 -7.15454,0 -11.67723,-4.38584 -11.67723,-11.06904 l 0,-9.10993 c 0,-6.68232 4.52269,-11.00157 11.67723,-11.00157 6.27555,0 10.52844,3.57821 10.52844,5.80431 0,0.20144 -0.20344,0.40577 -0.47224,0.54072 l -2.83519,1.41659 c -0.13495,0.0675 -0.20242,0.0675 -0.2709,0.0675 -0.20132,0 -0.33627,-0.0675 -0.53861,-0.2689 -2.02477,-1.89073 -3.37489,-3.71307 -6.4115,-3.71307 -4.11793,0 -7.15454,3.17247 -7.15454,7.15444 l 0,9.10994 c 0,3.9155 3.10499,7.22291 7.15454,7.22291 1.61992,0 3.23894,-0.67456 4.4542,-1.82335 1.4166,-1.34911 2.02377,-2.29357 2.42854,-2.29357 0.0674,0 0.20332,0 0.33827,0.0675 l 2.83519,1.41658 c 0.33727,0.13495 0.40375,0.27082 0.40375,0.54072 z" />
    <path
       inkscape:connector-curvature="0"
       id="path154"
       style="fill:#000000;fill-opacity:1;fill-rule:nonzero;stroke:#000000;stroke-opacity:1;stroke-width:1"
       d="m 502.38726,610.97651 c 0,0.47222 -0.20134,0.67555 -0.67457,0.67555 l -13.02443,0 c -0.47313,0 -0.67457,-0.20333 -0.67457,-0.67555 l 0,-0.94446 c 0,-3.98198 3.03661,-7.15444 7.15264,-7.15444 4.05046,0 7.22093,3.30741 7.22093,7.15444 l 0,0.94446 z m 4.59015,3.17256 0,-4.11702 c 0,-5.80433 -5.26472,-11.00157 -11.81108,-11.00157 -3.44136,0 -6.27565,1.21526 -8.50375,3.57821 -2.02377,2.15963 -3.17156,4.92644 -3.17156,7.42336 l 0,9.10993 c 0,6.6832 4.52267,11.06904 11.67531,11.06904 6.34494,0 10.46186,-3.77965 10.46186,-5.93828 0,-0.2699 -0.0674,-0.40576 -0.40465,-0.54071 l -2.83628,-1.41659 c -0.13385,-0.0675 -0.2678,-0.0675 -0.33629,-0.0675 -0.40475,0 -1.01184,0.94447 -2.43043,2.29358 -1.21326,1.14879 -2.83428,1.82335 -4.45421,1.82335 -4.04855,0 -7.15264,-3.30741 -7.15264,-7.22291 l 0,-3.6428 c 0,-0.47223 0.20144,-0.67557 0.67457,-0.67557 l 17.6146,0 c 0.47222,0 0.67455,-0.20242 0.67455,-0.67455 z" />
  </g>
</svg>
